<?xml version="1.0" encoding="UTF-8"?>
<svg id="Layer_1" data-name="Layer 1" xmlns="http://www.w3.org/2000/svg" version="1.1" viewBox="0 0 200 187.11">
  <defs>
    <style>
      .icons-holder__svg {
        fill: #201d1d;
        fill-rule: evenodd;
        stroke-width: 0px;
      }
      
    </style>
  </defs>
  <path class="icons-holder__svg" d="M199.04,1.44v135.3c0,27.02-21.49,49.24-47.78,49.24H48.61c-26.29,0-47.78-22.22-47.78-49.24V1.44h198.21ZM58.42,36.8c1.88,7.72,5.95,14.61,11.37,20.03,7.72,7.72,18.36,12.52,30.15,12.52s22.43-4.8,30.26-12.52c5.42-5.42,9.38-12.31,11.26-20.03-3.55-1.98-5.94-5.74-5.94-10.12,0-6.47,5.22-11.68,11.69-11.68s11.68,5.22,11.68,11.68c0,5.32-3.55,9.7-8.34,11.16-2.2,9.81-7.1,18.57-13.98,25.46-9.39,9.39-22.33,15.23-36.62,15.23s-27.23-5.85-36.61-15.23c-6.88-6.88-11.79-15.65-13.99-25.46-4.79-1.46-8.34-5.84-8.34-11.16,0-6.47,5.22-11.68,11.68-11.68s11.69,5.22,11.69,11.68c0,4.38-2.4,8.13-5.95,10.12h0Z"/>
</svg>