<?xml version="1.0" encoding="UTF-8"?>
<svg id="Layer_1" data-name="Layer 1" xmlns="http://www.w3.org/2000/svg" version="1.1" viewBox="0 0 3231.54 376">
  <defs>
    <style>
      .cls-1 {
        fill: #231f20;
        stroke-width: 0px;
      }
    </style>
  </defs>
  <path class="cls-1" d="M3063.77,169.75l29.09-5.92c12.29-2.45,21.66-7.52,27.96-15.17s9.5-17.24,9.53-28.62c0-9.25-3.2-17.08-9.66-23.57s-15.67-9.75-27.68-9.75l-28.62-.06c-.28,2.48-.47,6.18-.5,11.1l-.16,72.04.03-.03ZM3176.59,295.17c3.95,12.32,9.12,23.04,15.39,32.13,6.27,9.09,12.82,16.43,19.56,21.97v7.4l-99.75-.22v-7.4c5.86-3.98,8.81-9.97,8.84-17.99,0-6.46-2.73-18.65-8.21-36.49l-22.92-78.09-11.54,2.76-14.33,2.73-.16,69.72c-.03,14.76,1.38,26.83,4.29,36.27,2.92,9.4,7.74,16.43,14.48,21.03v7.4l-100.69-.22v-7.4c6.77-4.61,11.66-11.57,14.61-20.97,2.98-9.4,4.45-21.47,4.48-36.24l.44-193.95c0-4.92-.16-8.59-.44-11.1v-2.76c-1.5-21.54-7.59-36.05-18.37-43.45v-7.4l118.68.28c20.94.06,38.56,4.29,52.85,12.82,14.29,8.53,24.89,19.15,31.79,31.94,6.9,12.79,10.34,25.96,10.31,39.5-.03,18.75-4.23,34.64-12.57,47.52-8.34,12.92-21.13,23.79-38.4,32.7l31.63,97.52v-.03ZM2844.55,305.95c9.87,0,18.87-4.73,27.05-14.26,8.15-9.5,14.67-22.76,19.5-39.66,4.83-16.9,7.24-36.18,7.3-57.71.06-21.54-2.26-40.81-7.02-57.74s-11.19-30.22-19.31-39.75c-8.12-9.53-17.12-14.36-26.99-14.39-9.87,0-18.87,4.73-27.05,14.26-8.15,9.5-14.67,22.76-19.5,39.66-4.83,16.9-7.24,36.18-7.3,57.71s2.29,40.81,7.02,57.74c4.76,16.93,11.19,30.22,19.31,39.75,8.12,9.53,17.12,14.36,26.99,14.39ZM2844.43,360.44c-40-.09-69.97-15.64-89.94-46.61-19.97-30.97-29.84-70.94-29.75-119.91.09-48.97,10.19-88.87,30.28-119.75,20.09-30.88,50.16-46.3,90.16-46.21,40,.09,69.97,15.64,89.94,46.61,19.97,30.97,29.84,70.94,29.75,119.91-.13,48.93-10.19,88.87-30.28,119.75-20.09,30.91-50.16,46.3-90.16,46.21ZM2708.03,39.62c-6.77,4.61-11.63,11.57-14.61,20.97-2.98,9.4-4.45,21.47-4.48,36.24l-.44,193.95c-.03,14.76,1.38,26.83,4.29,36.27,2.92,9.4,7.74,16.43,14.48,21.03v7.4l-100.69-.22v-7.4c6.77-4.61,11.66-11.57,14.61-20.97,2.98-9.4,4.45-21.47,4.48-36.24l.19-80.34-68.34-.16-.19,80.34c-.03,14.76,1.38,26.83,4.29,36.27,2.92,9.4,7.74,16.43,14.48,21.03v7.4l-100.69-.22v-7.4c6.77-4.61,11.66-11.57,14.61-20.97,2.98-9.4,4.45-21.47,4.48-36.24l.44-193.95c.03-14.76-1.38-26.83-4.29-36.27-2.92-9.44-7.74-16.43-14.48-21.03v-7.4l100.69.22v7.4c-6.77,4.61-11.66,11.57-14.61,20.97-2.95,9.4-4.45,21.47-4.48,36.24l-.13,60.03,68.34.16.13-60.03c.03-14.76-1.38-26.83-4.29-36.27-2.92-9.4-7.74-16.43-14.48-21.03v-7.4l100.69.22v7.4ZM2389.57,359.37c-27.43-.06-50.94-7.21-70.6-21.41s-34.55-33.86-44.67-58.97c-10.09-25.14-15.11-53.82-15.05-86.14.06-31.1,5.17-59.15,15.2-84.23,10.03-25.08,24.8-44.95,44.23-59.69,19.44-14.73,42.82-22.07,70.25-22.01,7.4,0,13.67.5,18.93,1.44s11.38,2.16,18.46,3.73c8.03,2.16,14.14,3.26,18.46,3.26,6.46,0,11.38-1.07,14.8-3.2l6.46,2.32-32.95,73.82-6.46-2.32c-3.67-8.97-8.9-15.27-15.64-18.97s-13.67-5.58-20.75-5.58c-12.63,0-23.79,4.61-33.51,14.01-9.72,9.37-17.3,22.54-22.73,39.44-5.39,16.9-8.15,36.3-8.21,58.18-.06,23.1,2.92,43.01,8.87,59.81s14.2,29.66,24.61,38.62c10.44,8.97,22.13,13.45,35.08,13.48,11.1,0,21.41-3.01,30.97-9.15,9.53-6.14,15.74-14.73,18.53-25.83l8.31.47,9.09,64.67c-6.18,6.46-16.36,12.13-30.5,17.02-14.14,4.86-27.9,7.34-41.13,7.3l-.06-.09ZM2243.02,38.56c-6.77,4.61-11.63,11.57-14.61,20.97-2.98,9.4-4.45,21.47-4.48,36.24l-.44,193.95c-.03,14.76,1.38,26.83,4.29,36.27,2.92,9.4,7.74,16.43,14.48,21.03v7.4l-100.69-.22v-7.4c6.77-4.61,11.66-11.57,14.61-20.97,2.98-9.4,4.45-21.47,4.48-36.24l-78.18-136.39h-1.85l-.31,136.21c-.03,14.76,1.38,26.83,4.29,36.27,2.92,9.4,7.74,16.43,14.48,21.03v7.4l-100.69-.22v-7.4c6.77-4.61,11.66-11.57,14.61-20.97,2.98-9.4,4.45-21.47,4.48-36.24l.44-193.95c.03-14.76-1.38-26.83-4.29-36.27-2.92-9.4-7.74-16.43-14.48-21.03v-7.4l81.76.19,78.18,143.32h1.85l.19-78.49c.03-14.76-1.38-26.83-4.29-36.27-2.92-9.4-7.74-16.43-14.48-21.03v-7.4l100.69.22v7.4h-.03ZM1867.91,89.43l-21.57,144.48,44.33.09-20.91-144.58s-1.85,0-1.85,0ZM1960.73,290.06c2.1,13.86,5.77,25.58,11,35.11s11.35,16.65,18.43,21.29v7.4l-100.69-.22v-7.4c8.06-5.52,12.07-15.2,12.1-29.06,0-8.03-.88-17.08-2.7-27.24l-.44-4.17-60.03-.13-.47,4.17c-1.88,10.16-2.82,19.22-2.82,27.24-.03,13.86,3.92,23.57,11.94,29.12v7.4l-100.69-.22v-7.4c7.12-4.61,13.26-11.69,18.53-21.19,5.27-9.5,9-21.22,11.16-35.08l33.7-195.7c2.16-12.92,3.29-22.63,3.29-29.09,0-12.92-3.82-22.01-11.47-27.27v-7.4l115.92.28,43.26,259.62-.03-.06ZM1518.32,302.88c13.86.03,26.05-3.45,36.52-10.53l-61.69-87.87c-8.03,4.89-14.39,11.44-19.22,19.59-4.8,8.12-7.21,16.83-7.21,26.08-.03,15.99,4.61,28.81,13.98,38.37,9.37,9.56,21.91,14.36,37.62,14.39v-.03ZM1631.92,301.31c7.99,11.1,16.33,20.81,25.11,29.15,8.75,8.34,15.74,13.42,20.97,15.3v7.4l-80.38-.19-11.03-15.74c-18.78,13.51-41.16,20.22-66.99,20.16-19.4-.03-37.12-4.17-53.07-12.35s-28.59-19.87-37.77-34.95c-9.22-15.08-13.79-32.35-13.73-51.76.03-18.75,4.76-36.46,14.2-53.07,9.44-16.61,22.01-29.5,37.71-38.71l-32.23-45.8c.06-31.1,9.12-54.86,27.18-71.28,18.06-16.39,41.38-24.61,70.03-24.55,6.18,0,16.61,1.25,31.38,3.76,14.14,2.51,24.45,3.76,30.94,3.76,5.27,0,9.53-.72,12.95-2.29l6.46,2.32c-10.19,16.3-17.55,29.28-22.04,38.97s-6.74,19.62-6.77,29.78c0,4.33.85,7.84,2.51,10.63s4.08,4.17,7.15,4.17,5.27-.63,6.46-1.82c.91.28,1.6,1.1,2.07,2.32s.69,2.32.69,3.23c0,4.92-1.91,8.84-5.8,11.76-3.89,2.95-8.37,4.36-13.64,4.36-8.03,0-14.55-2.63-19.59-7.9-5.08-5.27-7.59-13.13-7.55-23.57,0-4.92,1.13-10.63,3.26-17.08-8.93-5.27-17.71-7.9-26.3-7.9-12.01,0-21.25,3.01-27.74,9.18-6.49,6.18-9.72,13.82-9.75,23.07l85.61,119.81c.03-15.08-.82-27.3-2.45-36.71-1.66-9.4-5.55-16.87-11.72-22.41v-7.4l85.89.19v7.4c-8.06,5.52-13.2,13.13-15.55,22.82-2.35,9.69-3.51,22.23-3.54,37.62-.06,20.6-3.79,39.53-11.22,56.77l8.28,11.57h.03ZM1311.14,36.43c-6.77,4.61-11.63,11.57-14.61,20.97s-4.45,21.47-4.48,36.24l-.44,193.95c-.03,14.76,1.38,26.83,4.29,36.27,2.92,9.4,7.74,16.43,14.48,21.03v7.4l-100.69-.22v-7.4c6.77-4.61,11.66-11.57,14.61-20.97,2.98-9.4,4.45-21.47,4.48-36.24l-78.18-136.39h-1.85l-.31,136.21c-.03,14.76,1.38,26.83,4.29,36.27,2.92,9.4,7.74,16.43,14.48,21.03v7.4l-100.69-.22v-7.4c6.77-4.61,11.66-11.57,14.61-20.97,2.98-9.4,4.45-21.47,4.48-36.24l.44-193.95c.03-14.76-1.38-26.83-4.29-36.27s-7.74-16.43-14.48-21.03v-7.4l81.76.19,78.18,143.32h1.85l.19-78.49c.03-14.76-1.38-26.83-4.29-36.27-2.92-9.4-7.74-16.43-14.48-21.03v-7.4l100.69.22v7.4h-.03ZM959.73,28.21l99.75.22v7.4c-6.21,4.61-10.94,10.31-14.36,17.05s-6.68,16.77-9.78,30l-60.19,268.62-63.73-.16-29.15-170.94-29.94,170.78-63.73-.16-58.97-268.9c-3.04-13.23-6.24-23.29-9.62-30.03-3.39-6.77-8.12-12.48-14.26-17.12v-7.4l99.75.22v7.4c-8.06,5.52-12.07,15.2-12.1,29.06,0,4.61.88,13.67,2.7,27.24l23.67,151.97h1.85l34.67-215.58,52.63.13,33.67,215.74h1.85l24.36-151.88c1.88-13.57,2.82-22.63,2.82-27.24.03-13.86-3.92-23.57-11.94-29.12v-7.4l.06.09ZM589.67,300.75c9.87,0,18.87-4.73,27.05-14.26,8.15-9.5,14.67-22.76,19.5-39.66,4.83-16.9,7.24-36.18,7.3-57.71.06-21.54-2.29-40.81-7.02-57.74-4.76-16.93-11.19-30.22-19.31-39.75s-17.12-14.36-26.99-14.39c-9.87,0-18.87,4.73-27.05,14.26-8.15,9.5-14.67,22.76-19.5,39.66-4.83,16.9-7.24,36.18-7.3,57.71-.06,21.54,2.29,40.81,7.02,57.74s11.19,30.22,19.31,39.75,17.12,14.36,26.99,14.39ZM589.54,355.23c-40-.09-69.97-15.64-89.94-46.61-19.97-30.97-29.84-70.94-29.75-119.91.09-48.97,10.19-88.87,30.28-119.75,20.09-30.88,50.16-46.3,90.16-46.21,40,.09,69.97,15.64,89.94,46.61,19.97,30.97,29.84,70.94,29.75,119.91-.13,48.93-10.19,88.87-30.28,119.75-20.09,30.91-50.16,46.3-90.16,46.21ZM319.39,163.45l29.09-5.92c12.29-2.45,21.66-7.52,27.96-15.17,6.3-7.65,9.5-17.24,9.53-28.62,0-9.25-3.2-17.08-9.66-23.57-6.46-6.49-15.67-9.75-27.68-9.75l-28.62-.06c-.28,2.48-.47,6.18-.5,11.1l-.16,72.04.03-.03ZM432.24,288.84c3.95,12.32,9.12,23.04,15.39,32.13,6.27,9.09,12.82,16.43,19.56,21.97v7.4l-99.75-.22v-7.4c5.86-3.98,8.81-9.97,8.84-17.99,0-6.46-2.73-18.65-8.21-36.49l-22.92-78.09-11.54,2.76-14.33,2.73-.16,69.72c-.03,14.76,1.38,26.83,4.29,36.27,2.92,9.4,7.74,16.43,14.48,21.03v7.4l-100.69-.22v-7.4c6.77-4.61,11.66-11.57,14.61-20.97,2.98-9.4,4.45-21.47,4.48-36.24l.44-193.95c0-4.92-.16-8.59-.44-11.1v-2.76c-1.5-21.54-7.59-36.05-18.37-43.45v-7.4l118.68.28c20.94.06,38.56,4.29,52.85,12.82,14.29,8.53,24.89,19.15,31.79,31.94,6.9,12.76,10.34,25.96,10.31,39.5-.03,18.75-4.23,34.64-12.57,47.52-8.34,12.92-21.13,23.79-38.4,32.7l31.63,97.52v-.03ZM151.33,354.23c-27.43-.06-50.94-7.21-70.6-21.41-19.66-14.2-34.55-33.86-44.67-58.97-10.09-25.14-15.11-53.82-15.05-86.14.06-31.1,5.17-59.15,15.2-84.23,10.03-25.08,24.8-44.95,44.23-59.69,19.44-14.73,42.82-22.07,70.25-22.01,7.4,0,13.67.5,18.93,1.44,5.24.94,11.38,2.16,18.46,3.73,8.03,2.16,14.14,3.26,18.46,3.26,6.46,0,11.38-1.07,14.8-3.2l6.46,2.32-32.95,73.82-6.46-2.32c-3.67-8.97-8.9-15.27-15.64-18.97s-13.67-5.58-20.75-5.58c-12.63,0-23.79,4.61-33.51,14.01-9.72,9.37-17.3,22.54-22.73,39.44-5.39,16.9-8.15,36.3-8.21,58.15-.06,23.1,2.92,43.01,8.87,59.81,5.96,16.8,14.2,29.66,24.61,38.62,10.44,8.97,22.13,13.45,35.08,13.48,11.1,0,21.41-3.01,30.97-9.15,9.53-6.14,15.74-14.73,18.53-25.83l8.31.47,9.09,64.67c-6.21,6.46-16.36,12.13-30.5,17.02-14.14,4.86-27.9,7.34-41.13,7.3l-.06-.06Z"/>
</svg>