<?xml version="1.0" encoding="UTF-8"?>
<svg id="Artwork" xmlns="http://www.w3.org/2000/svg" version="1.1" viewBox="0 0 16.33 19.1">
  <defs>
    <style>
      .cls-1 {
        fill: #231f20;
        stroke-width: 0px;
      }
    </style>
  </defs>
  <path class="cls-1" d="M9.88,4c-.19-.39-.47-.68-.81-.84l-.51-.24.55-.23c.41-.17.62-.38.81-.84l.26-.61.24.61c.18.46.37.66.78.84l.54.23-.49.25c-.29.15-.61.49-.79.85l-.3.6-.29-.6"/>
  <path class="cls-1" d="M12.94,8.04c-.11-.22-.27-.38-.45-.47l-.29-.13.31-.13c.23-.1.35-.22.46-.47l.15-.35.13.34c.1.26.21.37.44.47l.31.13-.27.14c-.16.08-.34.27-.44.48l-.17.34-.17-.34"/>
  <path class="cls-1" d="M5.17,11.79c-.3-1.7-.77-2.3-2.17-2.73l-.86-.26.87-.18c.59-.12,1-.31,1.27-.58.39-.39.78-1.43.96-2.54.05-.3.13-.55.18-.55s.18.51.28,1.14c.24,1.5.67,2.06,1.9,2.47l.89.3-.75.17c-1.06.25-1.76,1.01-2,2.18-.34,1.67-.38,1.7-.57.59"/>
  <path class="cls-1" d="M9.7,16.97c-.35-.7-.55-.92-1.09-1.17l-.66-.32.56-.16c.79-.22,1.09-.54,1.35-1.45.13-.43.26-.78.29-.78s.13.29.22.65c.18.72.84,1.44,1.53,1.67l.44.15-.44.11c-.75.19-1.22.63-1.51,1.41l-.28.75-.43-.86"/>
</svg>