<?xml version="1.0" encoding="UTF-8"?>
<svg id="Layer_1" data-name="Layer 1" xmlns="http://www.w3.org/2000/svg" version="1.1" viewBox="0 0 600 546">
  <defs>
    <style>
      .cls-1 {
        fill: #231f20;
        stroke-width: 0px;
      }
    </style>
  </defs>
  <path class="cls-1" d="M562.28,185.96l4.25,4.61c1.78,1.96,3.71,3.09,5.8,3.38,2.08.31,4.15-.15,6.22-1.39,1.66-1.01,2.73-2.45,3.19-4.32.47-1.88.05-3.9-1.26-6.07l-3.11-5.17c-.48.22-1.17.58-2.05,1.13l-13.03,7.84ZM551.97,220.03c-1.78,2.06-3.15,4.15-4.11,6.29-.95,2.12-1.56,4.1-1.83,5.93l-1.33.81-10.86-18.03,1.33-.81c1.36.63,2.77.5,4.22-.36,1.17-.71,3.07-2.53,5.68-5.49l11.59-12.67-1.75-1.78-2.05-2.28-12.61,7.59c-2.67,1.6-4.7,3.18-6.07,4.73-1.38,1.56-2.12,3.19-2.22,4.91l-1.33.81-10.96-18.2,1.34-.81c1.57.73,3.35.84,5.37.34,2.01-.49,4.36-1.54,7.03-3.15l35.07-21.11c.89-.53,1.54-.96,1.95-1.28l.5-.31c3.73-2.62,5.68-5.3,5.84-8.06l1.34-.8,12.91,21.46c2.28,3.78,3.44,7.43,3.46,10.93s-.74,6.59-2.3,9.23c-1.55,2.65-3.55,4.7-6,6.17-3.4,2.04-6.72,3.02-9.96,2.92-3.24-.09-6.61-1.21-10.09-3.36l-14.15,16.37ZM512.34,167.19c1.36,1.57,3.36,2.34,6.01,2.32,2.66-.03,5.65-.83,9.01-2.41,3.36-1.59,6.76-3.87,10.2-6.85,3.44-2.98,6.16-6.03,8.2-9.14,2.03-3.1,3.25-5.97,3.63-8.59.4-2.62-.08-4.71-1.45-6.28s-3.37-2.35-6.03-2.32c-2.65.02-5.65.82-9.01,2.41-3.35,1.58-6.75,3.86-10.19,6.84-3.43,2.98-6.16,6.03-8.2,9.14-2.04,3.1-3.25,5.96-3.64,8.59-.39,2.63.1,4.72,1.47,6.29ZM503.67,174.73c-5.54-6.37-7.23-13.29-5.08-20.77,2.15-7.47,7.13-14.59,14.92-21.37,7.8-6.77,15.54-10.71,23.23-11.82,7.7-1.09,14.33,1.55,19.87,7.92,5.54,6.37,7.22,13.29,5.07,20.76-2.15,7.48-7.13,14.61-14.91,21.38-7.81,6.78-15.55,10.72-23.24,11.81-7.7,1.1-14.32-1.54-19.86-7.91ZM531.28,104.77c-1.73-.14-3.46.36-5.18,1.51-1.72,1.16-3.57,2.94-5.53,5.36l-25.78,31.8c-1.96,2.42-3.33,4.6-4.1,6.52-.77,1.93-.9,3.71-.41,5.37l-.97,1.21-16.5-13.38.98-1.21c1.71.14,3.45-.36,5.17-1.52,1.72-1.15,3.57-2.93,5.54-5.36l10.67-13.17-11.19-9.07-10.68,13.17c-1.96,2.42-3.33,4.6-4.1,6.52s-.9,3.71-.4,5.37l-.98,1.21-16.5-13.38.98-1.21c1.72.14,3.45-.36,5.17-1.52,1.73-1.15,3.58-2.93,5.54-5.35l25.78-31.79c1.96-2.43,3.32-4.61,4.09-6.53s.9-3.71.41-5.37l.98-1.21,16.49,13.38-.97,1.21c-1.73-.14-3.46.36-5.18,1.51-1.72,1.16-3.57,2.94-5.53,5.36l-7.98,9.84,11.19,9.08,7.98-9.84c1.97-2.42,3.33-4.6,4.1-6.52s.9-3.71.41-5.37l.97-1.21,16.5,13.38-.97,1.21ZM439.45,120.56c-5.01-2.88-8.55-6.66-10.67-11.32-2.11-4.67-2.77-9.83-1.99-15.48.79-5.66,2.89-11.45,6.3-17.36,3.27-5.68,7.15-10.29,11.62-13.83,4.47-3.53,9.26-5.62,14.37-6.28,5.1-.67,10.15.45,15.17,3.34,1.34.78,2.45,1.53,3.31,2.24.86.73,1.86,1.61,2.97,2.64,1.24,1.23,2.26,2.08,3.05,2.53,1.18.69,2.2,1.01,3.04.97l.94,1.1-13.78,10.05-.94-1.1c.27-2.03-.02-3.73-.87-5.12-.85-1.4-1.92-2.46-3.22-3.21-2.31-1.33-4.84-1.65-7.61-.95-2.76.7-5.52,2.31-8.29,4.83-2.77,2.53-5.3,5.8-7.61,9.79-2.43,4.23-3.99,8.19-4.66,11.88-.68,3.7-.52,6.92.45,9.66.97,2.73,2.64,4.78,5.01,6.14,2.02,1.17,4.24,1.69,6.63,1.57,2.4-.11,4.43-1.05,6.1-2.78l1.48.96-5.13,12.79c-1.81.53-4.27.5-7.37-.09-3.11-.58-5.87-1.58-8.3-2.97h0ZM441.27,44.05c-1.68.42-3.15,1.45-4.42,3.08-1.27,1.65-2.44,3.93-3.53,6.85l-14.23,38.38c-1.09,2.92-1.68,5.42-1.79,7.49-.11,2.08.34,3.82,1.34,5.23l-.54,1.46-19.92-7.39.54-1.46c1.67-.42,3.15-1.45,4.41-3.1,1.27-1.64,2.45-3.93,3.53-6.85l-5.54-32.7-.36-.14-10,26.96c-1.08,2.92-1.68,5.42-1.79,7.49-.1,2.08.35,3.82,1.34,5.23l-.53,1.46-19.92-7.39.54-1.46c1.67-.42,3.15-1.45,4.41-3.09,1.27-1.65,2.44-3.94,3.53-6.86l14.23-38.37c1.09-2.92,1.68-5.42,1.79-7.49.11-2.07-.33-3.82-1.33-5.22l.54-1.47,16.17,6,5.03,34.07.37.13,5.76-15.53c1.08-2.92,1.68-5.42,1.78-7.49.11-2.07-.33-3.82-1.33-5.22l.54-1.47,19.92,7.39-.54,1.47ZM358.26,30.27l-9.86,29.21,9.2,1.67,1.04-30.81-.38-.07ZM370.08,75.39c-.08,2.95.25,5.53.97,7.7.73,2.18,1.73,3.89,3.04,5.11l-.28,1.54-20.9-3.8.28-1.54c1.88-.84,3.07-2.71,3.59-5.58.31-1.66.45-3.58.45-5.76l.06-.87-12.47-2.27-.25.84c-.76,2.04-1.29,3.9-1.6,5.56-.52,2.87-.05,5.04,1.39,6.48l-.28,1.54-20.89-3.8.28-1.54c1.64-.69,3.18-1.92,4.64-3.71,1.44-1.78,2.65-4.07,3.62-6.86l14.28-39.4c.93-2.61,1.52-4.57,1.76-5.92.48-2.69.03-4.72-1.36-6.09l.28-1.54,24.06,4.37-.67,55.53ZM282,70.73c2.91-.11,5.45-.96,7.59-2.54l-13.81-17.96c-1.64,1.11-2.93,2.53-3.87,4.29-.93,1.76-1.35,3.62-1.28,5.57.14,3.37,1.24,6.03,3.3,7.96s4.75,2.83,8.06,2.69ZM305.93,69.36c1.78,2.27,3.64,4.25,5.56,5.93,1.92,1.67,3.45,2.68,4.56,3.03l.06,1.55-16.93.7-2.47-3.21c-3.85,3.02-8.49,4.64-13.95,4.86-4.08.17-7.85-.53-11.29-2.12-3.45-1.57-6.22-3.91-8.29-7.02-2.08-3.1-3.2-6.69-3.37-10.78-.16-3.96.68-7.73,2.5-11.31,1.84-3.59,4.37-6.43,7.61-8.52l-7.21-9.34c-.28-6.55,1.42-11.65,5.07-15.28,3.65-3.63,8.5-5.57,14.54-5.82,1.29-.05,3.52.12,6.65.51,3.02.39,5.19.56,6.55.5,1.11-.04,2.01-.24,2.71-.58l1.38.42c-2,3.53-3.43,6.34-4.29,8.42-.86,2.08-1.24,4.2-1.16,6.34.04.91.25,1.65.63,2.22.39.57.9.84,1.56.82.65-.03,1.1-.17,1.34-.45.19.05.34.21.45.46.11.26.17.48.18.69.04,1.04-.34,1.88-1.12,2.52-.79.66-1.73.99-2.83,1.05-1.69.07-3.1-.42-4.22-1.48-1.12-1.07-1.72-2.7-1.82-4.91-.04-1.04.14-2.25.54-3.62-1.93-1.03-3.81-1.51-5.62-1.44-2.53.11-4.45.84-5.76,2.2-1.3,1.35-1.92,3.01-1.84,4.94l19.14,24.48c-.12-3.19-.41-5.76-.86-7.72-.43-1.97-1.32-3.51-2.67-4.63l-.07-1.55,18.11-.75.06,1.55c-1.64,1.25-2.66,2.9-3.06,4.96-.4,2.06-.53,4.72-.4,7.96.17,4.36-.44,8.38-1.85,12.08l1.85,2.35ZM228.06,20.74c-1.1,1.34-1.66,3.06-1.69,5.13-.02,2.07.41,4.61,1.29,7.6l11.65,39.22c.89,3,1.92,5.35,3.07,7.08,1.16,1.72,2.56,2.84,4.22,3.37l.44,1.49-20.36,6.05-.44-1.5c1.09-1.33,1.65-3.05,1.67-5.12.03-2.07-.4-4.61-1.29-7.6l-24.06-22.83-.38.11,8.19,27.55c.89,2.98,1.92,5.34,3.07,7.08,1.16,1.72,2.56,2.84,4.22,3.36l.44,1.5-20.36,6.05-.44-1.5c1.09-1.33,1.65-3.05,1.67-5.12.03-2.08-.41-4.62-1.29-7.6l-11.65-39.23c-.89-2.98-1.92-5.34-3.07-7.07-1.16-1.72-2.55-2.84-4.21-3.37l-.44-1.5,16.52-4.91,24.48,24.24.38-.1-4.72-15.88c-.89-3-1.92-5.35-3.07-7.08-1.15-1.72-2.55-2.84-4.21-3.37l-.44-1.5,20.36-6.04.45,1.49ZM150.91,46.42l18.45-10.12.75,1.36c-.67,1.48-.96,3.02-.9,4.62s.47,3.77,1.24,6.53l16.28,55.76-11.8,6.48-22.8-28.62,11.88,34.61-11.79,6.47-38.31-43.66c-1.92-2.13-3.53-3.65-4.84-4.56-1.31-.9-2.78-1.48-4.39-1.7l-.75-1.37,18.45-10.12.75,1.36c-.92,1.84-.68,4.04.74,6.61.46.85,1.56,2.44,3.27,4.76l19.87,25.66.35-.18-15.58-43.37,9.73-5.34,28.23,36.42.34-.18-10.99-30.55c-1.04-2.7-1.78-4.46-2.26-5.31-1.41-2.57-3.13-3.96-5.18-4.17l-.75-1.36ZM117.61,137.05c1.58-1.34,2.38-3.34,2.39-5.99.01-2.66-.76-5.67-2.3-9.04-1.55-3.38-3.8-6.8-6.74-10.27-2.94-3.47-5.95-6.24-9.03-8.31-3.08-2.08-5.93-3.32-8.54-3.74-2.62-.42-4.72.04-6.3,1.38-1.59,1.34-2.39,3.34-2.4,6,0,2.64.77,5.65,2.31,9.04,1.54,3.37,3.78,6.79,6.73,10.26s5.95,6.24,9.04,8.32c3.08,2.06,5.93,3.31,8.54,3.73,2.61.42,4.71-.04,6.3-1.38ZM125.04,145.81c-6.44,5.47-13.38,7.08-20.82,4.83-7.45-2.25-14.5-7.3-21.19-15.18-6.69-7.87-10.52-15.66-11.53-23.38-1.01-7.71,1.7-14.3,8.14-19.77,6.44-5.46,13.39-7.07,20.83-4.83,7.44,2.26,14.5,7.31,21.18,15.19,6.69,7.88,10.53,15.66,11.54,23.37,1.01,7.71-1.71,14.31-8.15,19.77ZM58.41,156.39l3.02-5.5c1.28-2.32,1.73-4.5,1.35-6.57-.37-2.07-1.48-3.88-3.31-5.44-1.49-1.26-3.18-1.82-5.1-1.66-1.93.16-3.71,1.2-5.35,3.13l-3.92,4.62c.36.38.93.91,1.72,1.59l11.59,9.84ZM94,155.29c2.52,1.03,4.95,1.65,7.28,1.89,2.32.22,4.39.16,6.21-.16l1.19,1.01-13.62,16.04-1.19-1.01c.15-1.49-.41-2.77-1.7-3.87-1.05-.88-3.37-2.1-7.01-3.65l-15.7-6.93-1.13,2.23-1.51,2.69,11.21,9.52c2.37,2.02,4.51,3.44,6.43,4.25,1.91.82,3.69.99,5.35.53l1.19,1.01-13.73,16.19-1.19-1.01c.17-1.71-.29-3.45-1.39-5.21-1.12-1.74-2.86-3.63-5.24-5.65l-31.19-26.49c-.79-.67-1.41-1.15-1.85-1.44l-.44-.38c-3.68-2.7-6.85-3.68-9.51-2.96l-1.19-1.01,16.21-19.09c2.86-3.36,5.95-5.62,9.26-6.77,3.32-1.15,6.48-1.41,9.48-.77,3.01.64,5.6,1.87,7.77,3.72,3.03,2.56,5.01,5.4,5.96,8.49.93,3.11.94,6.66.03,10.65l20.02,8.2ZM71.77,206.75c-3.01,4.93-6.86,8.41-11.58,10.41-4.71,1.99-9.89,2.53-15.52,1.61-5.64-.91-11.38-3.15-17.2-6.7-5.6-3.41-10.11-7.4-13.55-11.95-3.43-4.55-5.41-9.39-5.94-14.5-.53-5.12.7-10.15,3.7-15.09.81-1.33,1.58-2.42,2.32-3.26.75-.84,1.65-1.82,2.71-2.92,1.26-1.21,2.12-2.2,2.6-2.97.71-1.16,1.06-2.17,1.05-3.02l1.13-.92,9.71,14.02-1.12.91c-2.02-.31-3.73-.06-5.14.75-1.41.82-2.5,1.87-3.27,3.14-1.39,2.28-1.76,4.81-1.14,7.58.64,2.78,2.17,5.59,4.64,8.42,2.46,2.82,5.66,5.44,9.6,7.83,4.16,2.54,8.09,4.18,11.76,4.94,3.69.75,6.91.68,9.67-.23,2.75-.91,4.84-2.53,6.26-4.86,1.22-2,1.79-4.2,1.72-6.58-.06-2.4-.93-4.46-2.64-6.17l.99-1.45,12.68,5.44c.48,1.82.4,4.27-.27,7.36-.67,3.09-1.72,5.83-3.18,8.22Z"/>
  <path class="cls-1" d="M278.1,156.81c0-.11-.21-.34-.47-.49-.26-.16-.47-.07-.47.2s.21.49.47.49.47-.09.47-.2ZM273.61,158.56c.18-.17,1.21-.46,2.29-.64l1.97-.32-2.21-.06c-2.6-.07-3.02-.97-.47-1.03l1.75-.03-1.86-.56c-3.17-.95-1.13-1.16,2.56-.26,1.92.47,4.12.88,4.89.92,1.37.07,1.38.07.23.44-.64.2-1.84.4-2.68.42-.83.03-1.51.27-1.51.54,0,.3.68.39,1.75.24.96-.14,2.06-.05,2.45.2.48.31-.91.46-4.39.46-2.79,0-4.94-.14-4.76-.31M245.97,191.94c0-.26.21-.47.47-.47s.47.21.47.47-.21.47-.47.47-.47-.21-.47-.47M343.14,194.24c-1.15-.9-1.78-2.23-.76-1.6.6.37.59-.04-.03-1.31-.47-.98-.47-.98.23-.11.4.5.73.74.73.53s.35-.09.79.26c.54.43.68.45.44.06-.42-.7.23-.77,1.01-.11.31.26.47.34.36.19-.1-.15.48-.87,1.29-1.6,1.32-1.18,1.52-1.23,1.92-.54.67,1.16.59,2.04-.32,3.4-.91,1.38-3.05,2-4.06,1.18-.52-.42-.59-.41-.32.04.5.83.13.72-1.28-.38M220.86,196.79c-.81-.68-1.43-1.64-1.42-2.21.01-.96.05-.95.68.16.37.64.68.89.68.55,0-.34.24-.47.52-.3.27.17.37.63.22,1.02-.23.6-.15.61.42.14.39-.32,1.02-.47,1.4-.32.38.15.82.05.98-.21.16-.27.62-.35,1.01-.2.53.2.6.12.26-.32-.32-.41-.2-.83.36-1.37,1.72-1.63,1.93,1.41.22,3.13-1.51,1.5-3.51,1.48-5.34-.07M387.19,207.67c-.62-.3-.96-.78-.82-1.16.14-.35.06-.53-.17-.39-.45.28-1.06-.89-.67-1.29.39-.39,3.14.71,3.77,1.51.53.66.56.66.32-.04-.14-.42,0-.93.31-1.12.39-.24.46-.14.23.3-.19.36,0,.25.4-.25.4-.5.73-.72.73-.49s.27.04.6-.41c.6-.82.64-.56.37,2.18-.02.2-.24.25-.5.09-.27-.17-.34.04-.15.52.23.61.13.74-.48.5-.43-.16-.78-.09-.78.15,0,.6-1.82.52-3.16-.13M202.27,207.08c-1.26-1.45-1.28-1.8-.08-1.49.51.14.82.06.67-.18-.43-.71.36-.48,1.35.39.51.45.82.61.68.35-.29-.54,2.65-3.56,3.07-3.15.67.67.18,2.79-.9,3.97-1.52,1.64-3.42,1.69-4.79.11M194.25,220.18c-.89-.85-1-.87-.75-.15.39,1.12-.47.57-1.17-.75-.51-.95-.49-.97.32-.32.79.64.83.62.53-.18-.26-.69-.2-.77.28-.38.37.31.87.34,1.28.09.41-.26.93-.2,1.36.14.54.43.61.43.34-.03-.2-.33-.12-.58.17-.58s.41-.19.27-.41c-.14-.22.07-.68.48-1.02.6-.5.8-.49,1.15.06.63,1,.54,1.59-.48,2.88-1.28,1.63-2.5,1.84-3.75.65M296.89,207.57c0-.37.18-.57.4-.43.22.14.27.44.13.68-.38.61-.53.54-.53-.25M300.71,213.4c-.15-.24-1.2-.9-2.34-1.47-1.14-.57-1.97-1.19-1.85-1.38.12-.2-.04-.46-.36-.59-.46-.18-.45-.24.02-.27.34-.02.51-.2.4-.39s.29-.73.9-1.19c.62-.47,1.12-.61,1.12-.32s.19.4.42.25c.63-.39,2.2,2.54,2.3,4.28.08,1.53-.12,1.88-.61,1.08M192.41,232.7c-.33-.4-.7-.61-.83-.49-.13.13.04.56.37.95s.7.61.83.49c.13-.13-.04-.56-.37-.95M191.85,233.51c-1.07-1.25-1.55-2.18-.91-1.79.29.19.54.09.54-.21,0-.41.19-.4.71.04.61.5.66.46.38-.29-.3-.78-.24-.81.47-.23.7.58.76.55.47-.23-.3-.81-.26-.82.54-.18.48.38.73.45.54.14-.2-.33.07-.77.65-1.09.89-.48.94-.44.47.43-.42.79-.39.91.2.68,1.06-.41.9,1.49-.22,2.62-1.15,1.15-2.88,1.2-3.81.12M240.93,235.23c.09-.28.37-.5.61-.5s.52.22.61.5c.09.27-.18.5-.61.5s-.7-.22-.61-.5M241.58,238.57c-.14-.22.06-.67.44-.99.58-.48.69-.41.69.41,0,1-.66,1.34-1.13.57M242.24,241.78c0-.59.31-.93.85-.93,1.18,0,1.56.5.95,1.24-.77.93-1.8.75-1.8-.31M331.67,235.81c0-.25.33-.58.74-.74.46-.18.67-.07.55.27-.23.69-1.29,1.08-1.29.47M330.73,238.75c0-.43.22-.7.5-.61.28.09.5.37.5.61s-.22.52-.5.61c-.27.09-.5-.18-.5-.61M329.44,242.16c.29-.86,1.29-1.01,1.29-.18,0,.41-.33.74-.74.74s-.66-.25-.55-.55M344.34,210.78c-1.14-.8-1.4-2.91-.48-3.84,1.73-1.73,5.25.54,4.12,2.66-.42.79-1.85,1.9-2.45,1.9-.09,0-.63-.33-1.2-.73M245.04,210.57c-1.23-1.23-1.19-3.03.1-3.93,1.39-.98,2.51-.91,3.62.2,1.23,1.23,1.19,3.03-.1,3.93-1.39.98-2.51.91-3.62-.2M289.3,245.84c0-.2.42-.83.95-1.4,1.51-1.6,4.64-7.07,5.31-9.28l.61-1.99.52,1.4c1.83,4.88,2.97,6.91,5.32,9.43.77.82,1.29,1.62,1.15,1.76-.52.53-4.51-4.52-5.54-7-.58-1.41-1.18-2.56-1.32-2.55-.15,0-.77,1.18-1.4,2.62-.99,2.29-5.56,8.01-5.6,7.02M294.59,251.18c-.43-.66-1.41-1.77-2.17-2.46l-1.38-1.26,2.27-2.81c1.24-1.55,2.47-2.82,2.73-2.84.26-.02,1.41,1.17,2.56,2.65l2.1,2.67-2.66,2.63-2.66,2.62-.79-1.2M253.8,255.83c-1.44-1.53-2.95-3.61-2.01-2.76.21.19.7.08,1.09-.23.57-.46.64-.46.36,0-.19.32-.16.58.07.58.78,0,1.03-.61.5-1.25-.42-.51-.35-.58.35-.35.82.26.82.23-.05-.52l-.93-.8.93.33c.51.18,1.51.44,2.22.59s1.38.4,1.49.58c.11.17-.4,1.49-1.12,2.92l-1.31,2.6-1.6-1.7M335.8,256.95c-.09-1.89-.11-1.92-1.41-3.92l-1.24-1.89,1.47-.35c.81-.19,1.63-.31,1.82-.26.19.05.35-.15.35-.46s.14-.41.3-.24c.17.17.56-.05.87-.48.52-.7.61-.67.92.35.19.62.88,1.71,1.54,2.41.66.7,1.1,1.34,1,1.41-.11.07-1.41,1.14-2.88,2.37-2.63,2.2-2.68,2.21-2.73,1.03M313.2,257.65c-.81-.49-1.63-1.17-1.83-1.51-.21-.37,0-.31.53.14.49.42,1.52,1.09,2.29,1.5.77.41,1.19.75.93.76-.26,0-1.12-.39-1.93-.88M332.81,261.84c1.39-2.69,1.41-4.92.07-7.22-.68-1.16-1.59-2.3-2.03-2.55-.44-.25-.67-.58-.5-.75.56-.56,3.61,3.01,4.17,4.89.42,1.42.43,2.29.03,3.59-.41,1.33-.4,1.82.04,2.13.38.28.3.33-.25.15-.45-.14-.82-.08-.82.14s-.32.53-.7.68c-.63.24-.63.12-.01-1.07M231.89,262.26c-1.17-.78-2.41-1.76-2.76-2.18-.34-.42.48,0,1.84.93,4.25,2.91,7.93,2.89,10.74-.06,1.08-1.13,1.39-1.31.91-.54-2.16,3.51-6.98,4.34-10.74,1.85M252.95,265.61c0-.2.19-.56.42-.8.68-.71.93-3.93.41-5.41-.26-.75-1.42-2.09-2.58-2.97-1.16-.88-1.78-1.61-1.39-1.61s1.7.89,2.91,1.98c1.98,1.79,2.18,2.18,2.2,4.08,0,1.15-.1,2.52-.24,3.03-.14.51-.27,1.07-.29,1.23-.06.44-1.43.9-1.43.48M270.89,274.86c1.28-.22,6-.55,10.48-.73,6.24-.26,8.03-.2,7.64.21-.35.38-3.66.61-10.48.74-6.52.12-9.16.05-7.64-.22M273.91,278.09c2.68-.63,13.97-1.1,13.97-.58,0,.6-5.06,1.07-10.94,1.01-3.53-.03-4.26-.14-3.03-.43M257.17,282.05c.75-.39,1.4-.86,1.43-1.05.03-.18.11-.82.17-1.4.06-.59.24-1.2.41-1.36.61-.61,2.62.82,3.52,2.52.67,1.27.94,1.5.95.83.07-3.06-4-5.65-6.96-4.42-2.57,1.06-3.74,4.07-1.98,5.09,1.04.61.87.62,2.47-.21M256.39,289.08c-4.18-1.82-5.44-7.91-2.34-11.29,1.4-1.53,1.84-1.72,4.31-1.88,3.43-.22,5.22.78,6.64,3.7,1.26,2.61,1.25,3.86-.05,6.4-1.7,3.31-5.16,4.55-8.56,3.07M226.78,302.69c.86-1.06,3.54-2.25,7.31-3.23,4.89-1.27,6.88-1.07,2.57.27-3.1.96-6.8,2.25-9.55,3.33-.81.32-.85.27-.33-.37M219.22,332.17c-.14-.23.41-.99,1.23-1.68,1.78-1.5,2.41-.74.8.97-1.14,1.21-1.62,1.38-2.04.71M285.81,375.01c-.44-.71.31-.89,3.96-.96,6.89-.14,7.9-.05,7.9.7,0,.58-.95.7-5.79.7-3.19,0-5.91-.2-6.06-.43M286.33,378.86c-.88-.88.19-1.09,5.51-1.09,4.86,0,5.82.12,5.82.7s-.92.7-5.51.7c-3.03,0-5.65-.14-5.82-.31M286.02,381.97c0-.28,2.25-.47,5.82-.47s5.82.18,5.82.47-2.25.47-5.82.47-5.82-.18-5.82-.47M286.35,385.86c-.92-.91.17-1.12,5.38-1,3.51.08,5.66.31,5.59.6-.13.53-10.47.91-10.97.4M286.02,388.95c0-.28,2.18-.47,5.59-.47s5.59.18,5.59.47-2.18.47-5.59.47-5.59-.18-5.59-.47M286.02,392.45c0-.57.81-.7,4.54-.69,4.74,0,6.64.29,6.64.98,0,.22-2.52.41-5.59.41-4.66,0-5.59-.12-5.59-.7M286.02,395.94c0-.28,2.18-.47,5.59-.47s5.59.18,5.59.47-2.18.47-5.59.47-5.59-.18-5.59-.47M286.6,399.82c-.32-.13-.58-.43-.58-.68,0-.7,10.83-.3,11.06.41.15.44-1.01.57-4.85.54-2.77-.02-5.3-.14-5.63-.27M286.02,402.93c0-.28,2.18-.47,5.59-.47s5.59.18,5.59.47-2.18.47-5.59.47-5.59-.18-5.59-.47M286.02,406.65c0-.28,2.18-.47,5.59-.47s5.59.18,5.59.47-2.18.47-5.59.47-5.59-.18-5.59-.47M286.02,410.1c0-.52,1.12-.65,5.59-.65,4.72,0,5.59.11,5.59.72s-.84.71-5.59.65c-4.44-.05-5.59-.2-5.59-.71M287.3,414.2c-.7-.08-1.28-.35-1.28-.59s2.45-.43,5.63-.43c4.3,0,5.58.14,5.44.58-.19.56-6.5.85-9.78.44M286.02,417.36c0-.26.26-.48.58-.5.32-.02,1-.12,1.51-.23,1.49-.32,9.08.35,9.08.8,0,.22-2.52.41-5.59.41-3.41,0-5.59-.18-5.59-.47M286.14,420.97c.34-1.02,11.06-.84,11.06.18,0,.22-2.53.41-5.63.41-4.3,0-5.58-.14-5.44-.58M286.02,424.35c0-.27,1.42-.45,3.38-.43,2.32.02,3.08.16,2.45.43-1.31.56-5.82.56-5.82,0M389.88,405.25c0-.26.21-.47.47-.47s.47.21.47.47-.21.47-.47.47-.47-.21-.47-.47M385.6,405.2c1.57-1.57,4.69-5.02,6.93-7.66,2.24-2.65,4.16-4.72,4.27-4.62.47.47-5.52,7.97-9.07,11.38-4.54,4.36-6.35,5.12-2.13.9M389.62,409.04c.14-.23,1.9-.57,3.91-.75,2.01-.18,3.87-.47,4.14-.63.27-.17,1.56-2.4,2.89-4.96,1.33-2.56,2.28-4.03,2.12-3.26-.39,1.9-3.95,9.13-4.59,9.31-1.39.41-8.7.66-8.46.29M381.03,409.91c.9-.58,1.4-.58,1.4,0,0,.26-.47.46-1.05.46-.85,0-.91-.09-.35-.46M376.38,410.93c0-.25,2.15-2.73,4.77-5.53,7.21-7.68,11.68-12.78,14.52-16.56,2.08-2.77,2.36-2.03.34.93-5,7.33-19.63,23.11-19.63,21.16M372.37,414.65c.4-.65,5.19-2.1,6-1.82.32.11-.62.54-2.09.97-1.47.43-3.02.92-3.46,1.09-.53.2-.68.13-.46-.24M408.36,391.19c-.15-.37-.26-.26-.28.28-.02.49.09.76.24.61.16-.15.17-.56.04-.89M411.77,392.94c0-.11-.21-.34-.47-.49-.26-.16-.47-.07-.47.2s.21.49.47.49.47-.09.47-.2M414.63,396.34l-.45-1.56-.04,1.9c-.02,1.05.12,2.06.31,2.25.56.57.67-.91.18-2.59M412.24,401.32c0-.11-.21-.34-.47-.49-.26-.16-.47-.07-.47.2s.21.49.47.49.47-.09.47-.2M412.24,405.05c0-.11-.21-.34-.47-.49-.26-.16-.47-.07-.47.2s.21.49.47.49.47-.09.47-.2M414.9,405.14c-.11-.58-.21-.21-.21.81,0,1.02.09,1.5.2,1.05.12-.44.12-1.28,0-1.86M411.77,408.05c0-.26-.21-.47-.47-.47s-.47.21-.47.47.21.47.47.47.47-.21.47-.47M414.88,408.43c-.15-.37-.26-.26-.28.28-.02.49.09.76.24.61.16-.15.17-.56.04-.89M411.31,411.78c0-.26-.21-.47-.47-.47s-.47.21-.47.47.21.47.47.47.47-.21.47-.47M410.38,414.83c0-.37-.2-.79-.43-.94-.55-.34-1.11.53-.73,1.15.43.69,1.16.56,1.16-.2M410.16,431.68c-1.28-3.13-4.15-9.41-6.38-13.95l-4.06-8.25,2.33-5.72c1.29-3.15,2.96-8.03,3.73-10.85,1.84-6.76,1.87-6.8,2.32-5.12.23.84.31-.93.21-4.42-.16-5.65-.14-5.74.42-3.03.32,1.54.73,3.13.9,3.54s.6,2.4.94,4.42c.98,5.86.84,1.29-.2-6.5-.51-3.81-.91-7.27-.88-7.68.08-1.59,2.39,7.42,3.49,13.65,1.18,6.66,1.91,9.01,1.39,4.45-.65-5.6-1.78-13.03-2.63-17.17-1.03-5.08-1-4.72-.48-4.72s2.98,10.13,4.31,17.7c1.82,10.36,1.36,29.44-1,41.94-.47,2.45-1.12,5.11-1.46,5.93l-.62,1.49-2.31-5.7M184.96,377.11c0-.4.21-.73.47-.73s.47.2.47.44-.21.57-.47.73c-.26.16-.47-.04-.47-.44M183.63,385.72c.2-.6.84-.71.89-.15.02.18-.21.42-.52.52-.31.1-.48-.07-.37-.37M183.56,388.93c0-.27.21-.36.47-.2.26.16.47.38.47.49s-.21.2-.47.2-.47-.22-.47-.49M183.16,392.7c.2-.6.84-.71.89-.15.02.18-.21.42-.52.52-.31.1-.48-.07-.37-.37M188.26,412.72c-.62-2.87-.61-2.8-.09-2.8.45,0,1.22,4.56.83,4.95-.13.13-.47-.84-.75-2.15M186.67,416.37c-1.36-5.08-1.7-7.27-1.92-12.51l-.23-5.36.64,4.42c.35,2.44,1.08,6.92,1.61,9.97,1.04,5.92.99,7.57-.11,3.47M184.83,422.14c-1.44-8.15-2.15-13.75-2.24-17.81-.16-6.83-.04-8.85.53-8.85.27,0,.36.22.19.49-.42.68.59,12.51,1.67,19.54.49,3.2.89,6.29.9,6.87,0,1.48-.78,1.3-1.05-.23M387.27,427.45c-1.51-1.3-1.29-1.96.52-1.51,1.34.34,2.01,1.48,1.29,2.2-.31.31-.92.08-1.81-.69M385.32,430.31c-.75-.75-.71-1.77.08-1.77.86,0,1.84,1.23,1.47,1.84-.4.63-.86.61-1.55-.07M383.71,433.16c-.75-.43-1.17-1.83-.55-1.83.75,0,2.06,1.05,2.06,1.65,0,.79-.38.84-1.51.18M381.48,435.28c-.89-1.08.13-1.9,1.12-.9.74.73.66,1.62-.14,1.62-.21,0-.65-.32-.98-.72M379.48,438.01c-.55-.55-.33-1.55.34-1.55.54,0,1.22.92,1.22,1.67,0,.32-1.22.22-1.55-.12M377.08,440.19c-.16-.26-.16-.67-.01-.91.39-.62,1.64-.06,1.64.73,0,.75-1.2.88-1.63.18M375.04,442.36c-.28-.34-.39-.75-.23-.92.38-.38,2.03.51,2.03,1.09,0,.66-1.2.54-1.8-.18M373.14,444.65c-.32-.39-.36-.76-.1-.92.24-.15.68.02.98.38.32.39.36.76.1.92-.24.15-.68-.02-.98-.38M371.49,446.71c-.16-.26-.07-.47.2-.47s.49.21.49.47-.09.47-.2.47-.34-.21-.49-.47M354.95,459.47c0-.26.84-1.29,1.86-2.29s1.86-1.61,1.86-1.36-.84,1.29-1.86,2.29-1.86,1.61-1.86,1.36M348.96,462.18c.33-.87,5.48-6.16,6-6.16.65,0-4.08,5.5-5.29,6.14-.54.29-.82.3-.71.02M344.73,462.66c2.93-3.01,5.49-5.54,5.68-5.63.53-.24.41.75-.13,1.09-.26.16-1.54,1.59-2.85,3.17-2.34,2.83-6.73,6.78-7.59,6.81-.24,0,1.96-2.45,4.89-5.45M210.57,433.29c0-.64,2.19-1.63,2.79-1.26.3.19.38.5.16.69-.61.56-2.95,1-2.95.56M213.83,434.62c.63-.49,1.24-.81,1.35-.7.36.37-1,1.61-1.75,1.6-.57,0-.47-.24.4-.9M215.23,436.98c0-.6,1.37-1.63,1.71-1.3.34.34-.7,1.71-1.3,1.71-.23,0-.41-.18-.41-.41M217.81,438.36c-.32-.52.42-1.07.85-.64.44.44.36,1.08-.14,1.08-.24,0-.56-.2-.71-.43M275.65,445.76c.55-.88,1.27-1.68,1.58-1.78.31-.11.1.46-.47,1.26-1.45,2.04-2.34,2.46-1.11.53M291.23,447.75c-2.99-.25-2.2-1.23,1.11-1.37,3.32-.14,4.85.15,4.85.92,0,.6-2.24.77-5.97.45M288.93,451.5c-2.41-.46-.22-1.07,3.88-1.07,3.6,0,4.4.13,4.4.7s-.68.68-3.61.63c-1.98-.03-4.08-.15-4.66-.27M286.95,454.62c0-.28,2.02-.47,5.12-.47s5.12.18,5.12.47-2.02.47-5.12.47-5.12-.18-5.12-.47M293.47,458.82c0-.26.84-.47,1.86-.47s1.86.21,1.86.47-.84.47-1.86.47-1.86-.21-1.86-.47M290.28,458.84c.2-.6.84-.71.89-.15.02.18-.21.42-.52.52-.31.1-.48-.07-.37-.37M287.42,458.82c0-.26.21-.47.47-.47s.47.21.47.47-.21.47-.47.47-.47-.21-.47-.47M252.68,459.28c-3.15-.46-9.47-2.35-9.83-2.95-.17-.28.01-.35.46-.18,1.79.68,7.88,1.7,11.75,1.96,2.31.15,5.35.41,6.75.57l2.56.29-1.86.36c-2.27.44-6.63.42-9.82-.05M293.08,461.63c.2-.6.84-.71.89-.15.02.18-.21.42-.52.52-.31.1-.48-.07-.37-.37M254.33,462.08c-2.96-.43-5.78-1.04-6.29-1.36-.8-.5-.72-.54.68-.31,6.7,1.13,12.92,1.65,17.25,1.45,3.96-.19,4.51-.14,2.82.23-3.6.8-8.88.79-14.46-.02M277.41,466.27c-8.9-2.31-9.88-3.19-1.27-1.15,2.75.65,5.47,1.28,6.05,1.4s1.05.43,1.05.68c0,.59.16.61-5.82-.94M284.62,467.66c0-.26.32-.47.7-.47s.7.21.7.47-.32.47-.7.47-.7-.21-.7-.47M283.46,471.17c-4.34-.79-12.93-3.37-15.84-4.75-2.76-1.3-2.37-1.24,5.82.98,13.33,3.61,15.14,4.11,15.33,4.28.36.32-2.04.09-5.32-.51M280.2,474.21c-7.2-1.87-20.26-6.7-19.68-7.28.1-.11,3,.76,6.44,1.92,3.44,1.16,9.39,3.05,13.22,4.2,3.83,1.15,7.06,2.19,7.18,2.31.55.55-2.46.07-7.15-1.15M293.01,476.05c0-.26.21-.47.47-.47s.47.21.47.47-.21.47-.47.47-.47-.21-.47-.47M295.8,476.72c0-.4.21-.6.47-.44.26.16.47.48.47.73s-.21.44-.47.44-.47-.33-.47-.73M289.28,477.91c0-.26.21-.47.47-.47s.47.21.47.47-.21.47-.47.47-.47-.21-.47-.47M291.61,478.84c0-.26.21-.47.47-.47s.47.21.47.47-.21.47-.47.47-.47-.21-.47-.47M272.75,475.85c-20.12-6.68-31.38-11.7-39.86-17.78-5.53-3.96-16.53-14.63-15.08-14.63.15,0,1.89,1.52,3.86,3.38,7.82,7.39,15.55,12.74,25.64,17.76,6.16,3.06,11.79,5.26,25.41,9.93,5.87,2.01,10.76,3.92,10.87,4.23.1.31.01.55-.2.54-.21-.01-5-1.56-10.63-3.43M294.31,479.68c.43-.43.68-.43,1.12,0,.43.43.31.56-.56.56s-.99-.13-.56-.56M297.2,481.14c0-.27.21-.36.47-.2.26.16.47.38.47.49s-.21.2-.47.2-.47-.22-.47-.49M282.76,482.58c0-.75.19-.85,1.02-.54,1.49.55,1.6,1.45.18,1.45-.88,0-1.2-.24-1.2-.92M280.67,483.97c.16-.26.38-.47.49-.47s.2.21.2.47-.22.47-.49.47-.36-.21-.2-.47M292.31,483.08c-2.56-1.22-5.44-2.48-6.4-2.8-.96-.32-1.75-.77-1.75-1.02,0-.64,2.13-.02,5.82,1.7,1.79.83,4.36,1.98,5.71,2.55,1.35.57,2.45,1.22,2.45,1.44,0,.73-1.09.38-5.82-1.88M295.51,490.05c-1.56-1.48-4.07-3.38-5.56-4.24-1.49-.85-2.5-1.63-2.23-1.71.66-.22,5.99,2.84,8.4,4.81,1.7,1.4,2.88,3.2,2.4,3.67-.09.09-1.44-1.05-3.01-2.52M296.67,494.78c-1.21-1.36-6.46-5.47-6.46-5.06,0,.12-.65-.4-1.45-1.14-.79-.74-1.69-1.36-1.98-1.37-.29,0-1.16-.55-1.93-1.2-1.35-1.15-1.36-1.17-.23-.85.64.18,1.23.51,1.32.74.09.22.47.41.85.41s1.57.61,2.65,1.34c2.59,1.79,8.53,7.34,8.21,7.68-.14.14-.58-.09-.97-.54M337.51,160.39l-1.38-.2,2.08-1.04c2.65-1.33,3.91-3.23,4.67-7.01.62-3.12.97-3.48,1.24-1.28.25,2.03,1.48,5.37,2.38,6.45.46.54,1.55,1.37,2.43,1.84l1.6.84-2.09.37c-2.65.47-3.45.21-4.17-1.37-.56-1.23-.59-1.24-1.22-.34-1.54,2.22-1.8,2.3-5.54,1.75M241.78,160.29l-1.16-.35,1.4-.56c2.72-1.09,4.59-3.79,5.17-7.45.41-2.53,1-2.81,1.36-.63.72,4.4,2.12,6.65,5.08,8.16l1.36.69-2.18.33c-2.83.42-3.86.06-4.25-1.49-.31-1.23-.34-1.24-.96-.34-.35.51-.87,1.19-1.15,1.51-.54.63-2.8.7-4.65.14M342.38,161.72c0-.53,1.21-1.02,1.58-.64.56.56.26,1.05-.65,1.05-.51,0-.93-.19-.93-.41M247.13,162.13c-.16-.26.05-.6.46-.75.89-.34,1.39.03.96.73-.39.63-1.04.64-1.42.03M343.05,172.98c-1.02-4.64-1.68-6.16-3.25-7.54-.91-.8-1.94-1.45-2.31-1.45s-.78-.21-.94-.47c-.18-.29.82-.47,2.69-.47,2.8,0,3.02.08,3.56,1.28l.58,1.28.67-1.28c.62-1.18.89-1.28,3.45-1.28,1.53,0,2.78.09,2.78.2s-.84.67-1.86,1.25c-2.14,1.2-3.56,3.7-4.02,7.08-.35,2.59-.96,3.2-1.36,1.38M247.15,172.27c-.65-4.23-2.31-7.05-4.86-8.2l-1.68-.76,2.78-.14c2.78-.14,3.29.1,4.19,1.96.19.38.32.38.5,0,.9-1.86,1.41-2.1,4.19-1.96l2.78.14-1.94,1.04c-2.17,1.16-4.03,4.39-4.58,7.93-.17,1.09-.48,1.98-.69,1.98s-.52-.89-.68-1.98M400.39,266.97c-.45-.72.26-1.9,1.14-1.9s1.58,1.18,1.14,1.9c-.14.23-.65.42-1.14.42s-.99-.19-1.14-.42M189.32,266.7c-.16-.42-.07-.99.2-1.26.71-.71,2.05-.06,1.87.9-.2,1.07-1.7,1.33-2.07.36M391.75,283.23c-.7-1.3.17-2.79,1.63-2.79.66,0,1.34.39,1.63.93.7,1.3-.17,2.79-1.63,2.79-.66,0-1.34-.39-1.63-.93M201.28,283.26c-.61-1.14-.2-2.24.98-2.61,1.74-.55,3.01,1.65,1.7,2.95-.84.84-2.14.68-2.68-.34M406.88,292.35c-.61-1.24-1.5-2.17-2.56-2.66l-1.63-.76,1.76-.74c1.31-.55,1.96-1.22,2.58-2.67l.82-1.95.76,1.94c.58,1.47,1.17,2.11,2.48,2.65l1.72.72-1.55.79c-.92.47-1.93,1.55-2.51,2.68l-.95,1.9-.93-1.9M188.51,293.4c-.34-1.78-1.51-3.11-3.47-3.91l-1.22-.5,1.82-.9c1.88-.93,2.21-1.33,3.11-3.7l.54-1.4.34,1.51c.4,1.79,1.15,2.78,2.92,3.86l1.3.8-1.48.61c-1.08.45-1.75,1.23-2.51,2.95l-1.03,2.34-.31-1.66M182.78,302.99c-.37-.97.87-2.17,1.86-1.79.43.16.78.8.78,1.42,0,.88-.25,1.11-1.18,1.11-.65,0-1.31-.33-1.46-.74M411.8,303.52c-1.26-1.52.82-3.34,2.22-1.95.59.6.65.96.27,1.58-.68,1.08-1.76,1.24-2.48.37M411.86,308.73c.17-1.16,1.7-1.7,2.26-.79.58.95-.03,1.84-1.27,1.84-.92,0-1.12-.2-1-1.04M183.27,309.1c-.36-.94.18-1.65,1.25-1.65.65,0,.9.32.9,1.16s-.25,1.16-.95,1.16c-.52,0-1.06-.3-1.21-.68M202.4,309.66c-.18-.83-.73-2.31-1.22-3.27-.84-1.66-1.55-2.15-5.03-3.47-1.08-.41-1.02-.47.95-.96,2.75-.69,4.09-2.21,5.09-5.78.45-1.62.93-2.62,1.06-2.24.14.39.5,1.7.82,2.92.64,2.48,3.04,5,4.77,5.01,2.2.01,2.31.78.19,1.32-2.52.63-4.11,2.37-5.2,5.64-.43,1.29-.85,2.34-.94,2.34s-.31-.68-.48-1.51M393.19,315.64c-.95-5.38-2.45-7.27-6.86-8.64l-2.72-.84,2.76-.57c1.86-.39,3.17-.98,4.02-1.84,1.23-1.23,2.48-4.53,3.05-8.06.15-.96.42-1.75.58-1.75s.56,1.62.88,3.6c.75,4.74,2.12,6.52,6.01,7.84l2.81.95-2.38.55c-3.36.78-5.58,3.2-6.34,6.9-1.09,5.28-1.2,5.39-1.82,1.86M403.12,336.95c-1.11-2.22-1.74-2.9-3.44-3.72l-2.08-1,1.78-.49c2.49-.68,3.45-1.71,4.28-4.58.4-1.36.81-2.48.92-2.48s.42.92.71,2.04c.57,2.29,2.66,4.56,4.85,5.29l1.4.47-1.4.36c-2.38.61-3.86,1.99-4.78,4.47l-.88,2.36-1.36-2.72M195.95,338.01c-.41-.99-.75-1.96-.75-2.16,0-.7-2.93-2.83-4.25-3.09-1.58-.32-1.32-1.09.36-1.09s4.15-2.64,4.79-5.03c.66-2.43,1.22-2.49,1.59-.16.36,2.28,1.85,4.18,3.99,5.08l1.67.7-1.87.8c-2.27.98-2.85,1.64-3.94,4.51l-.84,2.23-.75-1.79M235.5,386.51c-1.3-4.88-2.83-7.07-5.29-7.61-2.54-.55-2.64-.76-.65-1.36,3.88-1.18,5.17-2.73,5.91-7.14.35-2.04,1.18-2.66,1.18-.88,0,3.74,2.26,6.91,5.52,7.79,2.24.6,2.18,1.17-.15,1.61-2.89.54-5.37,4.04-5.37,7.61,0,.58-.2,1.05-.44,1.05s-.56-.47-.72-1.05M364.14,393.61c-.14-.39-.52-1.85-.83-3.26-.89-3.98-4.52-6.97-8.47-6.98-1.77,0-.67-.78,1.87-1.3,1.48-.31,3.16-.88,3.74-1.29,1.41-.98,2.66-3.57,3.38-6.96l.59-2.79.59,3.09c1.03,5.41,2.19,6.83,6.72,8.19l2.56.77-1.94.35c-4.36.78-6.22,2.8-7.31,7.92-.34,1.63-.75,2.65-.89,2.27M345.23,435.8c-.65-2.58-2.5-4.81-4.37-5.3-1.84-.48-2.25-1.5-.61-1.5,1.97,0,4.37-2.61,5.04-5.47.31-1.35.68-2.45.83-2.45s.5.89.81,1.98c.77,2.8,2.23,4.95,3.72,5.5.7.26,1.6.59,1.98.74.48.18.08.54-1.21,1.1-2.32,1.01-3.8,2.8-4.51,5.45-.29,1.1-.68,2-.85,2s-.54-.93-.83-2.05M293.47,181.71c2.41-.53,2.83-.47,6.99.91,2.44.81,4.71,1.58,5.06,1.73.35.14-.25-.87-1.34-2.24-2.93-3.7-4.43-7.85-4.74-13.1-.06-.96-.24-1.75-.42-1.75-.45,0-.01,5.88.62,8.38.29,1.16,1.11,3.08,1.82,4.29l1.29,2.19-1.26-.48c-.69-.27-2.1-.63-3.12-.81l-1.86-.32-.13-9.89-.13-9.88,1.76-.05c.96-.02,3.59,0,5.83.04,3.36.07,4.08-.04,4.08-.62,0-.39.37-.8.82-.92.45-.12.14-.24-.7-.27-.83-.03-1.51-.29-1.51-.57s.26-.41.58-.3c.32.12,1,.06,1.51-.15.75-.3.64-.37-.61-.4-1.92-.04-1.62-.72.39-.88.82-.06,3.06-.54,4.99-1.05,1.92-.52,3.59-.85,3.71-.74.11.12.26,2.45.33,5.18l.13,4.97-1.67-.32c-7.62-1.45-11.51-1.44-5.86,0,2.31.6,5.16,1.5,6.35,2.01l2.16.94.28-1.71c.16-.94.28-4.5.29-7.93,0-5.73-.06-6.19-.81-5.91-4.8,1.86-9.15,2.69-15.37,2.92l-6.64.25v-8.91c0-4.9.16-8.91.36-8.91s.79.3,1.3.66c.52.36,1.72.81,2.66.98.95.18,1.72.35,1.71.39,0,.04-.73,1.84-1.62,4.02-.89,2.18-1.61,4.48-1.6,5.12,0,.71.36.1.89-1.58.48-1.51,1.63-3.83,2.54-5.16.91-1.32,1.66-2.53,1.66-2.69s-.74-.52-1.64-.82c-.9-.3-2.74-1.28-4.08-2.18l-2.43-1.65-1.63,1.01c-.9.55-2.96,1.65-4.58,2.45l-2.94,1.44,1.64,1.69c2.51,2.58,4.07,6.43,4.36,10.79l.26,3.7h-1.35c-4.84-.02-14.94-1.8-17.51-3.09-.69-.35-1.48-.63-1.75-.63-.32,0-.49,2.7-.49,7.92,0,4.35.08,7.92.18,7.92s1.62-.54,3.38-1.21c1.76-.66,4.98-1.58,7.16-2.05,3.47-.74,3.7-.85,1.86-.87-1.16,0-3.82.24-5.93.56-2.59.39-4.1.43-4.66.12-.74-.41-.7-.5.34-.79,1.1-.31,1.11-.33.12-.37-1.76-.08-1.16-.97.7-1.06l1.75-.08-1.86-.22-1.86-.22,2.56-.6c2.12-.49,2.28-.6.93-.58-.9.01-2.05-.01-2.56-.06-1.92-.16.8-.8,3.84-.9,2.92-.1,4.1.64,1.63,1.02-.9.14-.69.21.7.27,1.29.05,1.99-.13,2.02-.51.03-.47.08-.47.27,0,.17.42,1.71.58,5.44.58h5.2l-.31,5.24c-.46,7.68-1.7,11.17-5.6,15.67-.98,1.13-1.77,2.21-1.77,2.41s1.21-.12,2.68-.71c1.47-.59,3.83-1.33,5.24-1.64M362.61,193.69c-.18-.58-.37-1.1-.43-1.17-.06-.07-1.84-.26-3.94-.42-3.03-.23-3.93-.16-4.25.36-1.09,1.72-.48,1.92,6.71,2.2,2.12.08,2.23.03,1.92-.96M241.4,194.17c.55.03.7-.2.5-.75-.46-1.24-1.11-1.47-4.08-1.43-3.88.06-5.11.47-5.17,1.72-.06,1.02.02,1.03,3.96.72,2.2-.17,4.36-.29,4.8-.27M249.67,194.72c-.3-.19-.9-.25-1.33-.14-.44.12-1.18-.27-1.69-.87-.5-.59-.73-.93-.51-.75.51.41,1.66-.64,1.37-1.25-.12-.26.11-.06.52.44.66.82.95.68.77-.35-.04-.21.13-.27.37-.12.24.15,1.06-.25,1.81-.88,1.54-1.29,1.97-1.14,1.97.73,0,.84-.43,1.63-1.23,2.26-.68.54-1.12,1.09-.98,1.23.14.14.95-.36,1.79-1.11,2.15-1.92,2.16-4.31.04-6.21-2.8-2.51-7.14-1.33-7.79,2.12-.33,1.73.65,4.12,2,4.87.93.52,3.73.56,2.89.04M348.7,194.52c2.31-1.51,2.2-5.49-.2-7.18-1.94-1.36-3.12-1.56-4.94-.8-3.46,1.44-3.78,6.23-.55,8.25,1.65,1.03,3.87.92,5.7-.27M370.09,197.53c-.88-.38-.84-.5.2-.64.23-.03.6-.23.82-.44.21-.21.07-.32-.31-.23-.41.09-.64-.12-.55-.51.12-.54.01-.55-.58-.07-.4.33-.61.79-.47,1.01.55.89-.72.36-1.37-.57-.86-1.22-.06-3.05.96-2.2.33.27.5.64.4.82-.11.18.78.31,1.98.28,1.34-.02,2.18-.25,2.18-.59,0-.62,1.05-1.8,1.33-1.49,1.23,1.36.3,3.41-2.03,4.49l-1.16.54,1.09.03c.61.02,1.68-.56,2.45-1.33,1.82-1.83,1.8-3.69-.06-5.81-1.6-1.82-3.41-2.41-5.26-1.71-1.49.57-3.1,3.05-3.11,4.77,0,1.61,2.11,4.12,3.42,4.08.97-.03.98-.05.07-.43M225.87,197.8c1.49-.76,2.4-2.49,2.4-4.53s-2.63-4.59-4.63-4.59c-4.82,0-6.92,4.84-3.56,8.2,1.77,1.77,3.6,2.05,5.8.92M382.42,200.03c0-.69-2.85-2.39-3.61-2.14-1,.33-.59,1.23,1.16,2.57,1.67,1.27,2.43,1.13,2.45-.43M303.49,199.75c-.62-3.91-3.33-6.53-7.45-7.19-3.55-.58-7.89,3.08-8.44,7.13l-.25,1.81,1.06-1.75c1.2-1.97,1.78-2.18,2.15-.78.18.7.52.9,1.24.74.54-.13,2-.38,3.24-.56,1.29-.19,2.02-.48,1.7-.67-.41-.26-.42-.44-.04-.67.29-.18.45-.47.35-.64-.09-.17.2-.66.65-1.09.75-.71.91-.71,2.26.11,1.3.79,2.27,2.32,3.02,4.73.48,1.57.82.8.51-1.16M216.05,199.01c.13-.34.04-.81-.21-1.06-.66-.66-4.39,2.17-4.04,3.06.23.6.55.55,2.14-.34,1.03-.58,1.98-1.32,2.11-1.66M391.71,208.03c1.42-.74,1.9-1.56,1.9-3.29s-.91-3.32-2.17-3.89c-4.88-2.23-9.04,2.95-5.23,6.52,1.63,1.52,3.43,1.74,5.51.67M207.46,207.59c1.6-1.49,1.97-3.1,1.09-4.8-.95-1.83-1.78-2.45-3.67-2.76-3.21-.52-5.88,3.34-4.35,6.3.91,1.77,1.91,2.35,4.03,2.37,1.15,0,2.07-.34,2.89-1.11M309.13,206.88c5.06-4.62,12.42-8.05,23.13-10.77,5.52-1.41,5.92-1.58,5.65-2.49-.16-.54-.43-1.13-.6-1.31-.39-.42-7.95,1.11-12.06,2.45-4.76,1.55-12.2,5.27-14.48,7.24-2.47,2.13-4.71,5.14-4.71,6.31,0,.48.13.86.28.86s1.42-1.03,2.79-2.3M285.09,208.45c0-1.28-2.75-4.79-5.64-7.19-4.36-3.63-14.2-7.95-18.42-8.09-1.06-.04-1.84-.21-1.73-.39s-.23-.29-.75-.25c-.52.04-1.06.45-1.21.9-.14.46-.47.83-.73.83-1.26,0,.34.9,2.51,1.42,3.54.84,11.33,3.59,14.07,4.97,3.47,1.76,7.41,4.53,9.43,6.64,1.93,2.02,2.47,2.27,2.47,1.14M294.78,217.47c.31-.31.56-.94.56-1.4,0-1.52,2.16-.98,3.17.79.47.84.53.85.54.09.04-2.1-3.36-3.76-5.79-2.83-.92.35-2.26,2.83-1.87,3.45.39.64,2.72.56,3.39-.11M399.89,217.09c-.26-.42-.43-.41-.72.06-.49.79,0,1.57.6.96.26-.26.31-.71.12-1.02M394.88,220.24c-.93-.75-1.26-1.41-1.18-2.33.14-1.57.38-1.59,1.76-.13.6.63,1.24,1.05,1.45.92.2-.12.5,0,.66.26.16.27.49.36.74.21.24-.15.32-.47.17-.72-.15-.24-.5-.3-.77-.14s-.41.05-.3-.26c.1-.31.35-.49.56-.41.2.08.65-.37.99-1.01l.62-1.16.55,1.21c.7,1.55-.42,3.97-1.98,4.27-.96.19-.97.21-.08.27,1.5.1,3.08-1.9,3.08-3.9,0-2.2-1.98-4.42-3.94-4.42-4.06,0-5.92,3.88-3.33,6.95.66.79,1.45,1.43,1.75,1.43.3,0-.04-.48-.75-1.05M198.7,219.74c1.15-1.64.87-3.93-.67-5.47-1.69-1.69-3.25-1.73-5.12-.15-1.76,1.48-1.97,4.04-.49,5.92,1.54,1.95,4.82,1.8,6.29-.29M291.38,224.08c.16-.26.07-.47-.2-.47s-.49.21-.49.47.09.47.2.47.34-.21.49-.47M289.2,225.01c.17,0,.34-1.84.36-4.09.06-4.47.78-6.54,2.72-7.81,1.59-1.04,4.75-.98,6.22.11,2.5,1.86,3.09,3.2,3.35,7.49.21,3.49.36,4.08,1.12,4.22.84.16.87-.15.65-6.75-.26-7.66-.77-9.57-3.26-12.15-3.69-3.81-8.96-2.76-11.64,2.35-.91,1.73-1.05,2.83-1.21,9.59-.17,7.01-.12,7.61.61,7.34.43-.17.92-.3,1.09-.3M258.54,227.57c0-.38-.21-.7-.47-.7s-.47.32-.47.7.21.7.47.7.47-.32.47-.7M398.27,233.22c0-.1-.37-.46-.82-.81-.74-.58-.75-.56-.18.18.61.78.99,1.02.99.64M396.07,232.69c-.65-1.36-.68-1.73-.15-2.21.5-.47.57-.42.33.25-.23.66-.13.75.51.42.44-.22,1.59-.34,2.56-.28,1.23.08,1.65-.04,1.43-.42-.18-.3.03-.26.47.1.55.45.65.82.33,1.21-.26.31-.34.7-.17.86.16.16.03.61-.29,1.01-.37.44-.41.71-.09.71.87,0,1.95-2.01,1.95-3.63,0-1.1-.4-1.96-1.36-2.92-1.53-1.52-2.71-1.69-4.7-.66-2.46,1.27-3.04,3.84-1.36,5.99,1.32,1.67,1.5,1.54.57-.41M196.39,233.65c2.78-2.78-.27-7.96-4.11-7-2.85.72-3.74,4.32-1.7,6.91,1.32,1.68,4.17,1.72,5.81.08M303.72,232.45c0-3.61-.04-3.75-1.23-4.21-.68-.26-1.33-.36-1.46-.24-.41.41,1.98,8.18,2.51,8.18.1,0,.18-1.68.18-3.74M261.8,235.64c0-.61-1.06-.23-1.29.47-.11.34.1.45.55.27.41-.15.74-.48.74-.74M288.79,235.99c.54-.88,1.5-3.09,2.12-4.92l1.13-3.33-1.5.32c-3.05.65-3.13.78-3.13,5.35,0,2.3.09,4.17.2,4.17s.64-.72,1.18-1.59M261.03,239.43c1.06-.45-2.44-.17-5.98.48-1.8.33-1.82.35-.7.81,1.12.46,3.72-.04,6.68-1.29M345.87,242.19c-2.18-.48-3.27-.47-2.77.01.53.51,3.04.87,3.7.53.26-.14-.16-.38-.93-.54M259.35,243.36c-.15-.16-.56-.17-.89-.04-.37.15-.26.26.28.28.49.02.76-.09.61-.24M245.96,243.25c1.65-.52,2.61-1.09,2.72-1.62.14-.7-.1-.77-1.74-.51-1.25.2-1.9.13-1.9-.2,0-.64,1.52-1.47,2.72-1.47.5,0,1.04-.34,1.2-.75.21-.55.62-.66,1.55-.43.78.2,2.84-.09,5.35-.74,3.91-1.01,5.28-1.82,3.04-1.8-1.2,0-11.13,1.6-12.99,2.08-1.11.29-2.27-.38-1.68-.96.27-.26,12.53-2.91,14.76-3.18.91-.11,1.76-.22,1.89-.24.13-.02-.08-.25-.47-.49-1.02-.66-5.27-.54-9.55.27-6.1,1.15-7.51,1.3-6.99.75.51-.54,8.51-2.64,12-3.14,1.22-.18,2.34-.51,2.48-.74.14-.23.44-.31.66-.17.22.14.54.02.72-.27.19-.31-.02-.47-.55-.4-.48.06-1.21-.04-1.63-.22-.66-.29-5.71.18-9.95.93-2.88.51-.02-.69,4.04-1.69,3.6-.89,5.97-2.06,5.97-2.95,0-.16-.32-.29-.7-.29s-.7.22-.7.5-.4.37-.94.2c-.52-.17-2.85-.07-5.19.21-2.33.28-4.33.43-4.44.32-.11-.11,1.79-.68,4.23-1.27,2.43-.59,4.33-1.22,4.21-1.41-.12-.19.16-.44.61-.56.79-.2-1.82-.51-3.02-.35-.32.04-.58-.14-.58-.41s.35-.48.78-.48c1.02,0,.55-.44-.72-.68-.54-.11-1.16-.29-1.35-.41-.2-.12-1.38-.03-2.63.2-2.45.46-5.39,2.37-5.39,3.5,0,.38-.33,1.19-.73,1.8-.4.61-.82,1.77-.92,2.59-.1.82-.43,1.77-.73,2.13-.39.47-.4.65-.01.65.77,0,.63,1.69-.21,2.53-.67.67-.67.73,0,.73.86,0,.97,1.43.17,2.24-.4.4-.41.56-.03.56.82,0,1.2,1.83.55,2.61-.48.58-.41.75.45.97.69.18,1.01.59.95,1.26-.04.54-.05,1.15-.02,1.34.08.56,1.94.35,4.7-.51M332.6,243.87c.89-.51.97-.67.35-.68-.45,0-.82-.34-.82-.72,0-.48.48-.7,1.54-.7,1.46,0,2.65-.67,2.65-1.49,0-.2-.63-.37-1.4-.37-.93,0-1.4-.23-1.4-.7,0-.54.59-.7,2.53-.7,2.38,0,8.54.67,10.86,1.18.58.13,1.05.05,1.05-.18,0-.35-6.25-2.03-11.55-3.1-.85-.17-1.46-.54-1.37-.82.22-.66,5.51-.47,10.34.37,3.36.58,5.11.59,3.46.01-1.17-.41-12.02-3.52-12.28-3.52-.14,0-.25-.16-.25-.36,0-.55,8.9.23,12.14,1.07,5.34,1.38,3.33.33-3.84-2.02l-7.14-2.34,3.35-.04c1.84-.02,4.75.29,6.46.68,1.71.4,3.18.65,3.27.56.09-.09-2.08-.97-4.83-1.97-2.75-.99-5.19-1.97-5.44-2.18-.86-.75,5.58-.35,8.05.5,4.08,1.41,1.68-.15-2.84-1.85-2.24-.84-3.99-1.61-3.89-1.71.3-.3,4.79-.23,5.95.09,2.31.64-.48-1-3.11-1.83-2.42-.76-2.7-.76-5.09,0-1.39.44-2.64,1.09-2.78,1.44-.14.35-.59.64-1.01.64-.46,0-.66.26-.52.64.34.89-.57,1.68-1.98,1.7-1.02.01-1.08.08-.38.48.68.39.71.62.24,1.38-.31.5-.99.92-1.5.93-.91.01-.91.03-.05.68.73.55.78.79.29,1.38-.33.39-1.03.71-1.56.71-.95,0-.95.01-.06.67.73.54.8.83.38,1.51-.29.47-.92.79-1.4.71-.85-.13-.85-.11,0,.56,1.02.81.7,2.13-.51,2.14-.63,0-.68.1-.2.4.76.48.51,2.66-.28,2.5-.32-.07-.57.09-.57.35s.21.47.47.47.47.62.47,1.38c0,1.03.33,1.56,1.28,2.08,1.56.85,1.49.85,2.91.03M344.94,245.5c.16-.26.07-.47-.2-.47s-.49.21-.49.47.09.47.2.47.34-.21.49-.47M393.61,245.74c-.47-.56-.46-.86.03-1.51.58-.77.57-.77-.25-.02-.72.66-.76.91-.27,1.51.33.4.7.72.83.72s-.03-.32-.34-.7M199.8,244.63c-.1-.27-.44.07-.76.76-.54,1.16-.53,1.2.17.5.42-.42.68-.98.59-1.26M398.7,245.68c1.3-1.66,1.23-3.67-.18-5.09-1.65-1.65-4.15-1.35-5.71.68-.69.9-.79,3.01-.12,2.6.26-.16.33-.52.16-.8-.2-.34-.09-.37.34-.09.36.22,1.59.41,2.75.42,1.16,0,2.15.22,2.21.48.06.26-.73.44-1.76.41-1.03-.03-1.75.07-1.6.22.15.14.84.27,1.53.28,1.9.02,1.62,1.35-.37,1.7l-1.63.29,1.71.06c1.34.05,1.92-.21,2.68-1.16M194.83,245.95c-1.22-1.14-1.29-1.45-.25-1.05.49.19.66.11.47-.2-.19-.3.01-.45.51-.37.45.07,1.22-.2,1.71-.62.49-.42.75-.51.58-.21-.18.3-.08.7.22.89.34.21.42.14.21-.2-.19-.29-.12-.54.14-.54s.36-.32.21-.7c-.14-.38-.05-.7.21-.7s.58.37.69.82c.19.74.22.74.27.03.03-.44-.43-1.36-1.03-2.06-2.24-2.6-5.9-1.09-5.9,2.43,0,1.58,1.3,3.44,2.42,3.44.3,0,.09-.43-.47-.95M246.78,246.39c1.85-.54,2.7-1.36,1.4-1.35-.54,0-3.54.72-4.92,1.18-.89.3-.15,1.22.76.95.43-.12,1.67-.48,2.76-.79M203.93,256.24c-.07-1-.47-.86-.62.23-.06.38.08.68.3.68s.36-.41.33-.91M391.5,255.66l.92-1.72-.97-1.3c-1.97-2.65-6.24-1.55-6.22,1.61,0,.96.11,1.11.43.61.23-.37.33-.84.2-1.05-.42-.68.17-.38.82.41.54.67.54.73-.01.4-.43-.26-.55-.22-.34.11.17.28.77.42,1.33.32.56-.11,1.17.05,1.36.34.25.41.52.39,1.07-.07.44-.36.74-.41.74-.12,0,.27-.58.95-1.28,1.5l-1.28,1.01,1.16-.16c.78-.11,1.47-.73,2.09-1.89M202.1,257.3c-.82-.21-1.6-1.87-1.11-2.36.15-.15.27.06.27.47s.25.9.54,1.09c.37.23.45.08.24-.47-.18-.48-.12-.68.15-.51.26.15.72.13,1.03-.07.32-.2,1.1-.36,1.74-.38,1.61-.03,1.75-1.36.3-2.81-1.42-1.42-3.02-1.5-4.39-.22-1.81,1.68-.89,5.67,1.26,5.51.63-.04.62-.08-.05-.26M285.44,257.73c.11-.34-.2-.58-.75-.58-1.02,0-1.63.61-1.12,1.12.47.47,1.65.13,1.87-.54M378.28,254.95c3.65-5.52,5.71-10.52,6.71-16.23,1.8-10.29-.26-18.03-6.6-24.88-8.34-9.01-21-12.83-38.69-11.68-16.55,1.08-26.91,5.15-30.39,11.96-1.14,2.23-1.16,2.52-1.25,13.83-.05,6.35.02,11.84.16,12.2.14.36,1.16,1.19,2.27,1.84,3.2,1.88,4.07,3.27,3.7,5.97-.34,2.45.51,4.07,2.13,4.07,1.34,0,1.71-.98,2.04-5.36.45-6.04,1.88-11.43,4.47-16.79,1.89-3.93,2.79-5.18,5.52-7.76,3.95-3.73,7.93-5.74,12.76-6.46,3.37-.5,3.61-.48,6.33.75,3.34,1.5,7.73,5.8,9.52,9.34,2.2,4.35,2.87,7.45,2.85,13.24-.03,6.13-.75,9.21-3.32,14.1-.91,1.74-1.52,3.28-1.36,3.44.61.61,4.41-1.35,6.23-3.23,1.06-1.09,2.99-3.96,4.31-6.39,2.84-5.26,3.74-6.29,6.25-7.18,2.4-.85,7.73-1.36,7.73-.74,0,.25-.84,2.67-1.88,5.39-2.52,6.64-4.18,12.47-4.18,14.74,0,1.69.07,1.81.78,1.23.43-.35,2.19-2.78,3.92-5.39M219.66,260.76c-.68-4.41-1.74-7.55-4.9-14.54-1.83-4.03-3.21-7.44-3.07-7.58.14-.14,1.96-.03,4.06.24,5.2.66,6.87,1.88,10.23,7.47,3.48,5.79,5.74,8.4,8.23,9.5,1.13.5,2.13.84,2.22.75.09-.09-.55-1.63-1.43-3.41-5.25-10.77-3.95-24.39,3.06-32.05,3.17-3.47,7.07-5.48,10.68-5.5,7.99-.04,16.03,5.47,20.49,14.03,2.39,4.6,3.64,9.38,4.15,15.93.44,5.61.99,6.76,3.01,6.25,1.29-.33,1.9-1.89,1.23-3.14-1.19-2.23.07-4.94,3.02-6.51l2.12-1.13v-12.34c0-12-.04-12.41-1.11-14.71-2.86-6.13-13.71-10.71-28.1-11.84-12.33-.97-21.27.53-30.33,5.09-6.44,3.24-10.3,6.71-13.65,12.25-2.73,4.53-3.66,7.93-3.66,13.37,0,5.87,1.17,10.53,4.17,16.62,2.25,4.57,8.39,13.22,9.39,13.22.32,0,.38-.71.19-1.98M382.9,263.74c0-1.27-1.36-2.87-2.44-2.87-.54,0-1.48.46-2.07,1.01-1.23,1.16-1.41,1.88-.37,1.49.39-.15,1.06.01,1.49.36.68.54.73.54.4-.07-.33-.6-.28-.6.38.02,1.08,1.01,2.63,1.04,2.63.06M268.21,264.72c.27-.82-1.29-1.32-1.76-.55-.21.34-.28.81-.14,1.02.34.56,1.67.23,1.9-.47M210.94,265.16c.56.46.66.46.39.02-.19-.32-.17-.58.06-.58s.88-.44,1.46-.98c1-.93,1.01-1.02.25-1.86-.99-1.09-2.4-1.14-3.53-.12-.99.9-1.07,1.69-.31,3.1.35.67.61.81.74.42.17-.49.34-.49.95,0M358.45,266.46c0-1-1.36-.86-1.55.16-.12.62.07.81.69.69.47-.09.86-.48.86-.86M222.64,271.22c2.49-1.86,3.07-3.18,3.06-7,0-4.01-.91-7.28-3.31-12.05-.86-1.7-1.5-3.16-1.42-3.23.07-.07,1.56,2.28,3.29,5.24,3.87,6.59,5.65,8.62,8.77,9.96,3,1.29,5.84,1.03,8.18-.76,1.77-1.35,3.82-5.26,3.83-7.3v-1.31s2.83,1.5,2.83,1.5c1.68.9,3.1,2.03,3.49,2.8.95,1.82.83,4.57-.26,6.36-.51.84-.93,1.61-.93,1.7s.79-.03,1.75-.27c.96-.24,2-.47,2.31-.49.31-.03.45-.22.32-.44-.14-.21-.02-.39.25-.39s.49-.3.49-.66.22-.73.49-.82c.27-.09.56-.68.64-1.32.67-5.3,1.23-6.8,3.58-9.52,2.06-2.38,2.83-2.21.92.2-3.55,4.49-3.62,8.31-.21,11.13,2.12,1.74,3.58,1.47,1.88-.35-1.62-1.74-2.18-3.01-2.18-4.93,0-2.26.97-4.39,2.79-6.07l1.5-1.4.76,1.16c1.59,2.38,3.53,4.29,5.38,5.25,2.58,1.36,6.87,1.4,9.11.09,1.85-1.09,3.7-4.32,4.08-7.15.32-2.33.99-2.43,3.93-.57,5.03,3.19,6.13,8.73,2.45,12.4l-1.63,1.63h1.33c1.49,0,3.2-1.38,3.86-3.1.24-.63.44-2.22.44-3.53,0-3.06-1.5-5.67-4.71-8.23-2.82-2.25-2.39-2.57.57-.42,2.23,1.61,3.47,2.99,4.71,5.23.47.84.8,1.13.82.69.03-1.13,3.37-4.7,5.55-5.92,2.03-1.14,2.56-.81.99.61-.51.47-.93.72-.93.58,0-.82-3.53,3.03-4.47,4.88-1.12,2.19-1.55,5.34-.65,4.79.26-.16.47-.81.47-1.44,0-1.42,1.02-3.76,2.31-5.31.86-1.04.84-.88-.2,1.4-1.72,3.79-1.37,8.21.75,9.35,1.47.79,1.82.04.78-1.71-2.09-3.54-.6-8.45,3.45-11.38,2.51-1.82,3.44-1.78,3.81.14.53,2.72,2.71,6.07,4.7,7.23,1.48.86,2.4,1.04,4.46.92,3.72-.23,6.58-2.03,8.74-5.49.94-1.5,1.84-2.74,2.02-2.75.65-.05,3.24,2.47,3.95,3.83.49.96.65,2.11.49,3.56-.2,1.81-.57,2.43-2.43,4.11-1.2,1.09-2.49,1.98-2.87,1.98s-.55.21-.39.47c.16.26,1.32.47,2.59.47s2.3-.21,2.3-.47.24-.47.54-.47.87-.3,1.28-.68c.41-.37,1.22-1.11,1.8-1.65.58-.54.96-1.13.84-1.33-.33-.54,5.64-6.12,6.54-6.12.46,0-.07.64-1.32,1.6-2.69,2.05-3.81,4.33-3.38,6.86.33,1.96,1.78,3.88,2.57,3.4.27-.17.17-.68-.25-1.29-.94-1.33-.89-4.73.07-6.2.85-1.29,5.05-3.9,6.29-3.9.5,0,.89.53,1.09,1.51.89,4.32,4.62,7.11,9.04,6.77,5.98-.45,9.84-4.04,13.52-12.61.86-1.99,1.7-3.71,1.87-3.81.17-.11-.58,2.47-1.67,5.72-3.7,11.05-3.12,16.03,2.18,18.73,2.36,1.2,3.7,1.2,3.7-.01,0-.72-.31-.93-1.36-.93-2.61,0-6.11-4.31-6.05-7.45.02-.96.14-.86.68.63.81,2.21,2.47,4.96,3,4.96.22,0-.13-.94-.77-2.08-2.26-4.06-1.84-9.73,1.44-19.41l1.55-4.56-1.31.68c-1.64.85-2.53,2.12-5.37,7.68-2.95,5.78-6.03,8.95-9.7,10.02-3.29.96-4.99.61-7.04-1.44-1.7-1.7-2.37-3.9-1.96-6.43l.25-1.53-2.04.67c-1.85.61-2.18.59-3.77-.2-2.16-1.07-3.42-3.43-3.56-6.63-.06-1.31-.21-2.37-.34-2.36-.13.01-.86.89-1.63,1.96-2.79,3.85-5.98,4.66-9.25,2.35l-1.99-1.4-.76,2.14c-1.94,5.46-5.19,8.43-9.21,8.43-3.74,0-6.91-3.24-7.32-7.48-.2-2.12-.41-2.46-2.17-3.68-4.5-3.1-7.51-8.03-10.02-16.41l-1.29-4.33-.76,3.37c-1.85,8.15-4.69,12.92-9.64,16.2-2.86,1.9-3.23,2.31-3.24,3.63,0,2.51-.93,4.98-2.51,6.7-4.08,4.46-11.99.88-14.11-6.38-.41-1.42-.85-2.31-.96-1.98-.37,1.09-4.42,3.83-5.65,3.83-1.69,0-3.81-1.4-5.18-3.41-1.39-2.04-1.86-2.15-1.86-.42,0,2.01-.82,4.35-1.93,5.54-1.2,1.28-4.1,1.47-5.98.39-1.7-.97-1.84-.87-1.34.92.9,3.27-1.41,7.66-4.42,8.42-3.49.88-7.86-1.26-10.76-5.26-.77-1.06-1.68-1.95-2.01-1.96-.34-.01-.48-.24-.32-.5.48-.78-3.98-7.85-6.03-9.55-1.04-.87-1.96-1.4-2.04-1.17-.08.22,1.01,2.67,2.42,5.45,1.41,2.78,2.89,6.33,3.29,7.9.84,3.3.95,8.36.23,10.26-.78,2.07-2.77,3.88-4.25,3.88-1.26,0-1.74.81-.96,1.59.55.55,3.47-.08,4.73-1.03M327.3,276.85c-.09-.1-9.44-.85-16.13-1.3-7.58-.51-9.42-.72-10.3-1.19-1.2-.64-1.11.02.2,1.43l1.08,1.16h12.63c6.94,0,12.58-.04,12.53-.09M218.28,279.07c.65-.64,10.73-3.61,17.44-5.16,6.08-1.4,18.35-3.01,26.31-3.47,2.56-.15,10.08-.6,16.72-1.01,15.72-.97,48.49-.71,58.04.46,15.13,1.85,29.77,4.91,36.01,7.55,3.94,1.66,4.79,1.82,5.12.96,1.25-3.27-17.73-8.22-41.13-10.74-3.72-.4-7.69-.83-8.85-.96-5.08-.57-28.87-1.21-35.86-.97-30,1.05-37.63,1.75-53.58,4.91-13.13,2.6-21.47,5.59-21.79,7.81-.15,1.08.74,1.42,1.57.61M325.14,279.85c0-.19-1-.36-2.21-.39-1.22-.02-2.63-.12-3.14-.22-.51-.1-4.55-.33-8.97-.5-6.95-.27-8.03-.22-8.03.38,0,.38.11.81.25.94.39.39,22.11.18,22.11-.21M291.35,279.92c.48.77,2.64.62,3.6-.25.97-.88,1.12-2.51.29-3.33-.43-.43-.39-.56.2-.56,1.68,0,3.13.97,4.27,2.88,1.31,2.18,1.65,1.41.55-1.24-.8-1.9-2.8-3.04-5.34-3.04-2.35,0-4.15,1.47-4.68,3.82-.39,1.74-.14,2.69.47,1.73.23-.38.41-.38.64,0M223.78,283c-.3-.77-.91-.92-1.29-.3-.31.5.16,1,.95,1,.34,0,.49-.3.34-.7M330.57,283.46c-.36-.95.37-2.9.82-2.18.95,1.52,4.33-.52,3.77-2.27-.34-1.09-.12-1.12,1.61-.23,1.37.71,1.9,1.56,1.9,3.08,0,.49.21.89.47.89,1.41,0-.39-4.14-2.29-5.26-3.36-1.98-7.02.09-7.02,3.98,0,1.86.25,2.67.82,2.67.12,0,.09-.31-.06-.7M325.38,283.7c.16-.26-.16-.47-.7-.47s-.86.21-.7.47c.16.26.47.47.7.47s.54-.21.7-.47M321.62,283.75c.3-.49-1.03-1.7-1.43-1.3-.39.39.17,1.72.73,1.72.25,0,.57-.19.71-.41M318.62,283.14c0-.24-.45-.3-.99-.13-.55.18-1.13.09-1.3-.19-.19-.31-2.79-.55-6.8-.63-5.87-.12-6.51-.05-6.65.68-.15.75.41.82,6.83.82,4.37,0,7.1.18,7.29.49.34.54,1.62-.28,1.62-1.04M345.17,284.89c0-.49-.89-.7-1.16-.27-.16.26.03.48.43.48s.73-.09.73-.2M323.96,286.99c.14-.24.04-.57-.23-.74-.69-.42-1.97.13-1.62.7.36.59,1.49.61,1.84.04M327.24,287.42c-.16-.26-.48-.47-.73-.47s-.44.21-.44.47.33.47.73.47.6-.21.44-.47M347.85,287.54c.26-.76-1.21-1.31-1.83-.68-.27.27-.34.73-.16,1.02.41.67,1.73.44,1.99-.34M246.31,288.07c-.15-.16-.56-.17-.89-.04-.37.15-.26.26.28.28.49.02.76-.09.61-.24M236.65,288.07c0-.84-1.22-.84-1.55,0-.14.36-.14.76,0,.9.43.43,1.55-.22,1.55-.9M326.43,290.1c-.11-.32-.48-.58-.82-.58s-.71.26-.82.58c-.12.34.21.58.82.58s.93-.24.82-.58M323.05,290.21c.44-.7-.37-.85-7.1-1.29-5.63-.37-7.17-.66-6.59-1.25.12-.12,2.51-.32,5.32-.45,3.87-.18,5.14-.39,5.24-.88.09-.45-.28-.64-1.16-.62-.72.02-4.77-.13-9.01-.32-7.26-.33-7.75-.3-8.52.54-.78.86-.75.9.67,1.19.81.16,2.7.29,4.21.29s2.74.21,2.74.47c0,.27-1.54.47-3.68.47-3.43,0-3.67.06-3.44.92.26.98-.44.93,16.53,1.31,2.64.06,4.63-.09,4.8-.37M232.46,290.08c-1.5-.75-3.06-3.61-2.62-4.78.26-.67.43-.73.71-.27.21.34.96.54,1.69.45,1.56-.18,2.68-2.52,1.56-3.23-.47-.3-.36-.41.43-.41,1.33,0,3.36,1.28,3.36,2.14,0,.35.21.64.47.64.8,0,.51-1.29-.58-2.57-.71-.82-1.69-1.3-3.01-1.48-1.79-.24-2.11-.12-3.61,1.38-1.41,1.41-1.64,1.95-1.64,3.82s.25,2.42,1.36,3.54c.75.75,1.75,1.36,2.21,1.36.66,0,.59-.14-.31-.6M363.63,290.32c3.93-3.18,1.63-9.42-3.46-9.42-1.69,0-3.08,1.44-2.66,2.76.49,1.55,3.5,1.14,3.5-.48,0-1.26.8-1.09,2.42.54,1.18,1.18,1.37,1.66,1.13,2.88-.36,1.78-1.3,2.89-3.1,3.63-1.15.48-1.58.42-2.88-.32-.84-.49-1.9-1.61-2.34-2.5-.71-1.41-.82-1.47-.82-.52,0,.62.68,1.77,1.58,2.68,1.32,1.32,1.92,1.58,3.61,1.57,1.21,0,2.43-.34,3.02-.82M333.06,290.68c0-.26-.2-.47-.44-.47s-.57.21-.73.47c-.16.26.04.47.44.47s.73-.21.73-.47M329.69,290.57c-.11-.32-.48-.58-.82-.58s-.71.26-.82.58c-.12.34.21.58.82.58s.93-.24.82-.58M261.34,292.07c13.44-.93,28.4-1.85,30.01-1.85.91,0,1.66-.19,1.66-.42,0-.9-2.85-1.33-7.95-1.18-6.18.18-4.73-.46,2.24-.98,2.37-.18,4.31-.48,4.31-.66s-.54-.62-1.21-.98c-.91-.48-3.23-.63-9.43-.6-9.45.06-8.68-.55,1.32-1.05,3.46-.18,6.36-.38,6.45-.45.09-.07.02-.57-.15-1.1-.29-.93-.65-.97-7.84-1.02-8.16-.07-7.18-.49,2.55-1.13l4.96-.33.29-1.56c.64-3.43,4.86-6.2,8.5-5.59,2.65.44,2.93.44,5.92-.07,3.47-.59,20.26-.4,27.05.31,4.71.49,19.95,2.67,26.5,3.79,1.51.26,2.98.39,3.26.29,1.36-.46-19.95-3.85-31.39-4.99-6.07-.61-30.32-1.39-35.25-1.14-2,.1-8.15.31-13.65.45-13.44.36-18.93.79-23.52,1.87-1.54.36-4.57.99-6.74,1.41-2.18.41-4.27.96-4.66,1.22-.56.37-.51.4.22.16.51-.17,2.92-.4,5.36-.51,5.01-.23,4.68.2-1.33,1.7-3.19.79-5.46,1.75-2.86,1.21.64-.14,2.16-.38,3.37-.54,1.85-.24,2.17-.17,1.94.42-.15.41-1.36.92-2.91,1.22-4.81.95-5.28,1.33-1.57,1.3,1.87-.02,3.52.09,3.67.25.34.34-1.32,1.02-4.04,1.64-2.03.47-1.99.48,1.04.31,3.72-.2,4.53.44,1.52,1.2-2.5.63-2.34,1.12.34,1.12,2.45,0,2.72.86.48,1.49l-1.76.49,2.18.06c2.38.07,3.4.81,1.68,1.22-.59.14-2.85.67-5.03,1.18l-3.96.92,2.96-.26c1.63-.14,4.07-.37,5.42-.5,3.11-.31,3.9.58.91,1.02-1.17.17-3.01.61-4.08.97-1.89.62-1.82.64,2.24.41,2.31-.14,7.23-.45,10.94-.71M369.59,293.59c.18-1.47.89-4.93,1.59-7.68,1.25-4.89,1.21-6.29-.09-3.73-.79,1.56-3.1,11.11-3.1,12.84,0,.75.26,1.25.64,1.25.43,0,.75-.88.96-2.68M326.9,302.24c-.29-.86-1.29-1.01-1.29-.18,0,.41.33.74.74.74s.66-.25.55-.55M229.53,303.47c3.43-1.29,12.63-3.61,18.53-4.67,10.75-1.93,34.72-3.47,53.79-3.46,32.31.02,55.18,2.85,64.88,8.02,2.93,1.56,4.14,1.44,4.42-.46.56-3.75-15.58-7.43-42.52-9.7-2.05-.17-4.1-.38-4.55-.47-2.92-.53-27.25-1.18-34.81-.93-29.65,1-55.57,4.44-62.62,8.32-2,1.1-2.65,2.63-1.63,3.85.73.88.82.87,4.5-.51M338.65,307.88c7.53-.54,16.77-1.68,17.19-2.11.15-.15-1.09-.15-2.75,0-7.25.68-16.85,1.2-27.25,1.46-6.15.16-11.49.4-11.88.53-3.02,1.06,10.78,1.12,24.68.11M287.65,308.38c.16-.26.07-.47-.2-.47s-.49.21-.49.47.09.47.2.47.34-.21.49-.47M283.23,308.42c0-.47-3.48-.73-19.33-1.44-5.89-.26-12.7-.61-15.14-.77-2.44-.16-4.32-.17-4.19-.03.33.35,12.21,1.76,18.4,2.18,7.57.51,20.26.55,20.26.06M288.82,310.56c.39-.14.13-.27-.58-.28-1.02-.03-1.28.17-1.28.98,0,.9.07.93.58.29.32-.41.9-.85,1.28-.99M288.12,313.67c.62-.24.65-.38.15-.69-.92-.58-1.32-.49-1.32.29s.08.82,1.16.4M289.28,315.83c.62-.4.62-.45,0-.47-.38,0-1.17-.14-1.75-.29-.77-.2-1.05-.08-1.05.47,0,.85,1.66,1.02,2.79.29M291.38,318.58c1.22-.06,1.17-.11-.47-.4-1.02-.19-2.44-.5-3.14-.69-1.12-.31-1.28-.22-1.28.69s.16,1.02,1.75.75c.96-.16,2.38-.32,3.14-.35M294.81,321.17c.12-.12-.92-.21-2.31-.21s-3.2-.19-4.01-.43c-1.5-.43-2.88.32-2.31,1.25.24.39,8.2-.17,8.63-.61M296.18,324.45c.13-.13-1-.24-2.52-.24-1.52,0-3.86-.14-5.2-.3-2.15-.26-2.45-.19-2.45.54s.4.81,4.96.54c2.73-.16,5.07-.41,5.2-.54M309.72,317.47c-.26-4.35-.56-8-.68-8.11-.11-.12-.2,3.46-.2,7.95s.14,8.29.32,8.47c.86.86.99-1.05.56-8.3M347.59,339.24l.14-2.68.88,1.63c.49.89,1.05,2.15,1.24,2.79.27.91.36.64.39-1.2.02-1.3.2-2.53.39-2.72.19-.2.93.87,1.64,2.37l1.29,2.72-.17-2.68c-.09-1.47,0-2.68.22-2.68s.39.16.4.35c0,.19.44.87.97,1.51l.96,1.16-.26-1.21c-.14-.67-.12-1.36.06-1.53.18-.18.39-.81.47-1.41.14-1-.07-1.12-2.31-1.39-2.4-.29-17.04-1.19-19.57-1.21-1.18,0-1.28.14-1.28,1.86,0,1.56.15,1.86.95,1.86.52,0,1.07.31,1.22.7.14.39.46.7.68.7s.41-.31.41-.7c0-1.42,1.3-.66,1.6.93.37,1.94.95,2.14,1.1.37.18-2.2.92-2.24,1.54-.07.63,2.22,1.6,3.74,1.15,1.8-.15-.64-.09-1.79.14-2.56l.41-1.4.52,1.31c.29.72.53,1.58.53,1.92s.32.88.7,1.19c.61.5.7.26.7-1.84,0-2.92.63-2.72,1.44.44.33,1.28.75,2.33.95,2.33s.42-1.21.49-2.68M253.42,339.56c0-2.79.57-2.69,1.39.25.69,2.46,1.46,2.84,1.09.53-.14-.87-.04-1.97.23-2.45.44-.79.53-.74.99.53,1.16,3.21,1.36,3.36,1.39,1.08.04-2.9.71-3.19,1.43-.6.75,2.67,1.39,2.67,1.39,0s.58-2.66,1.48.12l.71,2.21.36-2.21c.36-2.28.86-2.79,1.37-1.44.49,1.29,1.63-.68,1.65-2.86v-1.86s-7.05.3-7.05.3c-11.41.48-14.85.86-15.15,1.64-.15.38,0,1.56.33,2.64.5,1.65.64,1.8.95,1.01.32-.81.41-.74.69.59.49,2.23.98,2.22,1.37-.02l.34-1.97.82,2.33.82,2.33.35-2.25c.4-2.5.72-2.4,1.63.5.83,2.65,1.4,2.5,1.4-.38M294.72,343.22c-.15-.37-.26-.26-.28.28-.02.49.09.76.24.61.16-.15.17-.56.04-.89M314.2,344.24c.16-.26.07-.47-.2-.47s-.49.21-.49.47.09.47.2.47.34-.21.49-.47M305.89,343.66c-.13-.32-.23-.06-.23.58s.1.9.23.58c.13-.32.13-.84,0-1.16M303.11,344.15c-.15-.37-.26-.26-.28.28-.02.49.09.76.24.61.16-.15.17-.56.04-.89M365.97,344.91c.39-1.01-.6-1.96-1.3-1.26-.6.6-.23,1.99.53,1.99.27,0,.62-.33.77-.73M334.14,345.8c.42-.42-.62-1.61-1.13-1.29-.64.4-.49,1.6.2,1.6.34,0,.76-.14.93-.31M268.24,345.29c-.09-.45-.47-.82-.84-.82s-.75.37-.84.82c-.11.57.14.82.84.82s.95-.24.84-.82M385.73,342.49c1.62-5.79-1.62-12.51-7.49-15.55-3.19-1.65-8.28-1.77-11.65-.27-5.8,2.57-9.47,8.77-8.47,14.32l.38,2.1.29-2.37c.48-3.91,2.04-7.74,3.73-9.12.83-.68,1.6-1.16,1.7-1.05s.43,0,.72-.25c.65-.54.72,1.56.07,2.16-.25.22-.31.06-.14-.39.16-.47,0-.88-.43-1.05-.44-.17-.63-.05-.5.31.12.32,0,1-.27,1.51-.44.86-.41.88.38.23.8-.64.83-.62.49.23-.82,2.06-.72,2.69.17,1.08.52-.94,1.18-1.86,1.47-2.04.37-.23.37-.04,0,.66-.28.54-.62,3.03-.74,5.53-.18,3.76-.13,4.27.3,2.92.28-.89.88-2.79,1.35-4.19l.84-2.56.07,3.49c.1,4.78.69,6.18,1.08,2.5.43-4.09.91-5.08,1.33-2.73.19,1.02.35,2.8.38,3.96.06,2.95.69,1.56,1.44-3.19.64-4.04,1.2-4.06,1.44-.06.16,2.79,1,2.96,1.01.21,0-.26-.14-1.49-.31-2.74l-.31-2.28.9,1.15c.5.63,1.18,2.03,1.51,3.09.33,1.07.73,1.94.88,1.94.49,0-.39-4.41-1.26-6.32-.46-1.01-.92-2.04-1.03-2.3-.11-.26.48.16,1.31.93.84.77,2.02,2.45,2.62,3.73.85,1.8,1.09,2.06,1.09,1.16-.02-1.74-1.11-4.45-2.51-6.29-1.35-1.77-1.13-2.05.68-.89,1,.64.98.58-.16-.47-.72-.67-1.5-1.1-1.71-.96-.22.14-.53.04-.69-.22-.16-.26-1.22-.48-2.36-.48-1.24,0-2.07-.21-2.07-.53,0-.73,5.17-.17,6.94.74,1.84.95,4.15,2.95,4.79,4.15.48.91.46.94-.27.34-.61-.5-.92-.53-1.34-.11-.82.82.75,2.3,1.65,1.55.53-.44.75-.2,1.19,1.26.77,2.57.68,7.94-.16,9.54-.95,1.83-.85,2.17.22.77.49-.64,1.15-2.06,1.45-3.16M329.58,347.85c.14-.58.2-4.93.12-9.66l-.13-8.62-2.56-.07c-1.41-.04-14.53-.23-29.15-.42-22.64-.3-26.65-.26-27.01.3-.56.87-.84,12.32-.4,16.21.28,2.42.43,2.83.7,1.91.2-.64.37-2.32.4-3.73.11-5.63.94-9.1,1.58-6.64.12.45.24-.13.27-1.28.1-3.33.8-3.72,1.12-.61.15,1.49.54,3.55.87,4.57l.6,1.86.27-2.33.26-2.33.54,1.86c.3,1.02.85,3.09,1.23,4.59.38,1.5.76,2.79.84,2.87.08.08.09-1.98.01-4.59-.15-5.24.37-5.41,1.35-.45.32,1.61.75,2.93.95,2.93s.42-1.63.5-3.61l.14-3.61.59,2.1c.32,1.16.88,3.04,1.23,4.19l.65,2.1.09-4.19.09-4.19.61,2.1c.34,1.16.94,3.14,1.32,4.42l.7,2.33-.08-4.27c-.05-2.35.03-4.39.18-4.54.14-.15.67,1.46,1.16,3.57l.89,3.84.24-3.96c.27-4.41.57-4.42,1.43-.08.69,3.51,1.36,3.03,1.36-.99,0-3.33.72-3.11,1.16.37.5,4.03,1.62,3.16,1.68-1.31.04-2.83.66-1.91,1.13,1.67.35,2.69,1.14,2.92,1.22.35.03-1.02.11-2.07.18-2.33.07-.26.16-.94.21-1.51.08-1.01.11-1.01.49-.12.22.51.41,1.7.43,2.64.07,3.6,1.41,4.48,1.47.97.05-2.54.74-7.39.83-5.84.17,2.82,1.16,8.05,1.51,8.05.22,0,.42-2.57.44-5.71.03-6.37.48-6.18,1.33.58.31,2.44.73,4.59.93,4.8.36.36.93-4.6,1.02-8.94l.05-2.14.39,1.63c.21.89.53,3.36.71,5.48.49,5.94,1.14,5.05,1.14-1.58,0-7.04.66-7.26,1.41-.47.8,7.18,1.38,7.48,1.26.65-.07-4.18.05-5.94.42-5.94.73,0,1.06,1.43,1.41,6.19.47,6.3,1.28,5.68.99-.76-.18-4.11-.1-5.43.33-5.43.57,0,1.63,4.17,1.64,6.48,0,.73.14.98.36.64.2-.31.23-1.98.07-3.73-.15-1.74-.23-3.24-.16-3.33.07-.09.55-.02,1.09.15.79.25.98.71,1.02,2.49.02,1.2.23,2.7.46,3.34.28.79.34.07.19-2.18-.33-4.89.86-5.13,1.94-.38l.53,2.33.05-2.65c.03-1.46.24-2.77.47-2.91.56-.34,1.31.64,1.57,2.06.18.98.22.93.27-.35.07-1.6,1.25-2.15,1.76-.82.14.39.54.7.86.7.81,0,1.63,5.86,1.63,11.66,0,2.72.19,4.64.46,4.64.25,0,.57-.47.72-1.05M241.19,344.94c1.6-3.07,1.7-7.4.26-10.56-1.38-3.02-4.6-6.37-7.36-7.67-3.4-1.59-8.47-1.55-11.78.1-6.4,3.19-9.31,11.06-6.4,17.31,1.32,2.84,1.88,3.23,1,.7-1.53-4.38-1.21-8.81.68-9.31.49-.13.76-.45.59-.72-.18-.29-.07-.34.26-.14.32.2.42.75.25,1.29-.2.63-.13.84.21.63.33-.2.52.11.52.82,0,1.59,1.69,6.88,2.55,8,.67.87.68.84.21-.47-.85-2.38-1.37-5.86-1.06-7.1.27-1.05.39-.9,1.09,1.33.75,2.4,3.09,7.41,3.46,7.41.1,0-.2-1.21-.66-2.68-.46-1.48-.96-3.94-1.12-5.47l-.28-2.79.71,1.85c.97,2.52,3.55,7.78,3.73,7.61.08-.08-.25-2.03-.73-4.33-.48-2.31-.88-4.5-.88-4.89,0-.39,1.03,1.4,2.3,3.96s2.18,4.03,2.04,3.26c-.28-1.46-1.43-6.31-1.88-7.92-.5-1.79,1.12.3,2.9,3.73,1.56,3.02,1.66,3.12,1.37,1.39-.41-2.47-1.83-6.46-2.99-8.43l-.93-1.58,1.15.75c.63.41,2.12,2.3,3.33,4.19,1.2,1.89,2.24,3.44,2.31,3.44s-.28-1.19-.79-2.65c-1.02-2.96-1.85-4.43-3.6-6.31-.65-.7-1.06-1.4-.9-1.56.52-.52,3.18,1.42,4.8,3.49.88,1.13,1.6,1.91,1.6,1.73,0-.57-1.52-2.8-2.97-4.37-1.75-1.88-1.04-1.96,1.46-.15,3.91,2.83,5.48,6.11,5.41,11.27-.04,2.76-.33,4.17-1.27,6.29-1.38,3.09-.39,2.09,1.45-1.46M319.82,354.71c-.5-.38-1.13-.68-1.4-.67-.27,0-.09.32.41.7s1.13.68,1.4.67c.27,0,.09-.32-.41-.7M285.77,357.32c.14-.24.06-.56-.2-.73-.26-.16-.48.03-.48.43,0,.82.28.94.68.29M327.47,358.76c0-.45-1.77-1.41-2.79-1.51-1.8-.19-1.95.11-.46.94,1.7.95,3.25,1.22,3.25.57M332.13,362.64c-.6-.64-1.61-1.16-2.24-1.16-1.11,0-1.09.05.43,1.12,2.15,1.53,3.24,1.56,1.82.04M279.55,363.92c.51-1.13.87-2.4.79-2.83-.24-1.24-2.56,2.15-2.97,4.34-.32,1.72-.28,1.81.45,1.21.44-.36,1.22-1.58,1.73-2.72M336.61,369.12c-.16-.41-.28-.82-.28-.92,0-.32-2.87-1.68-3.09-1.46-.29.29,2.59,3.12,3.18,3.12.27,0,.35-.33.2-.74M273.75,368.21c.79-2.32.6-3.03-.56-2.07-1.2,1-2.08,3.07-2.08,4.92v1.71l.95-1.22c.53-.67,1.29-2.18,1.68-3.35M339.37,375.18c-.7-1.07-3.3-2.99-4.06-2.99-.17,0,.77,1.15,2.1,2.55,2.36,2.51,3.48,2.75,1.96.44M301.86,376.12c0-.68-.99-.92-1.55-.36-.42.42.62,1.61,1.13,1.29.23-.14.41-.56.41-.93M265.64,377.66c.77-1.18,2.69-6.16,2.69-6.97,0-.65-2.22,1.37-2.92,2.66-.62,1.13-1.23,5.36-.77,5.36.18,0,.64-.47,1.01-1.05M338.01,381.28c.31-.8-1.8-2.79-3.67-3.47-1.13-.41-1.28-.34-1.28.48,0,2.18,4.27,4.76,4.95,2.98M260.8,381.37c.3-1.18.54-2.73.53-3.45v-1.31s-1.37,1.5-1.37,1.5c-1.45,1.6-2.16,4.07-1.68,5.95.28,1.12.32,1.13,1.14.31.47-.47,1.09-1.81,1.39-2.99M336.5,387.94c-.23-.38-.06-.45.56-.23.76.27.75.19-.14-.56-.56-.48-.92-.98-.79-1.12.24-.24-2.26-2.2-2.79-2.2-.8,0-.1,2.11,1.08,3.3,1.34,1.34,2.75,1.89,2.08.82M255.62,389.9c-.12-.45-.01-1.17.23-1.6.24-.43.3-1.64.12-2.68-.31-1.84-.34-1.87-1.16-1.02-1.08,1.11-1.29,3.27-.5,5.18.63,1.52,1.7,1.62,1.31.13M339.28,391.03c-.15-.4-.38-.62-.5-.5-.13.12-.08.45.08.72.46.75.73.6.41-.22M334.01,395c.74-.4.81-.68.43-1.75-.71-1.97-1.5-3.37-1.88-3.37-.69,0-.97,2.87-.41,4.22.64,1.54.65,1.54,1.86.89M252.72,396.87c-.16-.25-.09-.46.14-.46.44,0,.02-3.11-.65-4.84-.33-.85-.36-.85-.96-.03-.86,1.17-.78,3.57.17,5.56.62,1.31.87,1.51,1.19.95.22-.4.27-.92.12-1.18M205.45,398.81c0-.61-.55-1.01-1.01-.73-.48.3-.07,1.12.57,1.12.24,0,.44-.18.44-.39M203.12,400.55c0-.53-1.26-.54-1.59-.01-.14.22-.13.52.01.67.37.36,1.57-.14,1.57-.65M208.04,400.7c-.42-.42-1.72.35-1.42.84.2.34.51.32.97-.06.37-.31.57-.66.45-.78M330.27,400.8c0-.34.24-.76.54-.95.36-.22.41-.13.16.28-.24.39-.2.5.13.3.54-.34,0-2.92-.78-3.7-1.11-1.11-2.23,1.81-1.67,4.35.26,1.16.43,1.32.97.88.36-.3.66-.82.66-1.16M200.33,402.95c0-.63-.85-1.07-1.41-.72-.26.16-.35.49-.2.73.35.56,1.61.56,1.61,0M205.45,403.39c0-.26-.32-.47-.7-.47s-.7.21-.7.47.32.47.7.47.7-.21.7-.47M210.14,403.73c-.06-.56-.69-.45-.89.15-.1.31.07.48.37.37.31-.1.54-.34.52-.52M250.5,402.63c.1-2.07-.95-4.83-1.85-4.83-1.26,0-1.34,4.01-.12,5.88,1.14,1.74,1.85,1.36,1.97-1.05M202.44,405.69c.54-.88-.25-1.1-1.06-.29-.73.73-.73.79-.01.79.42,0,.91-.22,1.08-.5M207.78,406.19c0-.26-.2-.47-.44-.47s-.57.21-.73.47c-.16.26.04.47.44.47s.73-.21.73-.47M212.67,406.65c.16-.26-.04-.47-.44-.47s-.73.21-.73.47.2.47.44.47.57-.21.73-.47M332.8,405.49l.27-1.4-.53,1.4c-.29.77-.75,1.71-1.02,2.1-.44.62-.41.62.27,0,.42-.39.88-1.33,1.02-2.1M217.32,407.11c-.53-.59-1.02-.78-1.29-.51-.63.63.03,1.45,1.16,1.45.95,0,.95-.02.13-.94M199.63,407.58c.16-.26.07-.47-.2-.47s-.49.21-.49.47.09.47.2.47.34-.21.49-.47M205.02,408.51c.24,0,.43-.21.43-.47,0-.74-1.22-.54-1.92.32-.56.69-.54.75.21.47.47-.18,1.05-.32,1.28-.32M322.38,403.81c.49-.97,1.61-2.3,2.47-2.96.98-.75,1.69-1.77,1.88-2.7.17-.82.92-2.27,1.69-3.22s1.39-2.22,1.39-2.82.37-1.82.82-2.71c1.09-2.14,1.02-11.53-.11-13.13-.4-.56-.72-1.48-.72-2.04s-.73-1.9-1.63-2.97c-.9-1.07-1.63-2.24-1.63-2.59s-.62-.96-1.37-1.35-1.93-1.44-2.62-2.34c-.68-.89-1.53-1.63-1.87-1.63s-1.77-.52-3.18-1.16c-1.4-.64-2.78-1.16-3.07-1.16-.38,0-.46,1.18-.27,4.08.14,2.24.38,7.22.52,11.06.38,10.24,1.11,25.06,1.44,29.43l.29,3.81,2.53-1.91c1.39-1.05,2.93-2.7,3.43-3.67M215.26,408.85c-.06-.56-.69-.45-.89.15-.1.31.07.48.37.37.31-.1.54-.34.52-.52M210.11,408.98c0-.26-.21-.47-.47-.47s-.47.21-.47.47.21.47.47.47.47-.21.47-.47M325.32,407.91c.82-1.45,1.05-2.41.88-3.72-.2-1.48-.34-1.67-.91-1.2-1.22,1.01-2.01,3.1-2.01,5.29,0,2.5.45,2.41,2.04-.38M219.89,409.94c0-.63-.85-1.07-1.41-.72-.26.16-.35.49-.2.73.35.56,1.61.56,1.61,0M212.67,411.31c.16-.26.07-.47-.2-.47s-.49.21-.49.47.09.47.2.47.34-.21.49-.47M248.65,411.66c.02-.32.14-1.02.27-1.56.14-.57-.26-1.81-.95-2.95-.98-1.64-1.28-1.87-1.78-1.35-.6.62-.84,1.7-.74,3.33.06.87,2.04,3.12,2.75,3.12.22,0,.43-.26.45-.58M217.56,411.78c0-.26-.2-.47-.44-.47s-.57.21-.73.47c-.16.26.04.47.44.47s.73-.21.73-.47M325.76,414.77c.47-.64.78-1.36.7-1.59s-.62.29-1.2,1.18c-1.2,1.84-.78,2.18.5.41M317.9,414.78c.65-.65,1.19-1.38,1.19-1.63s.21-.44.47-.44.46-.89.45-1.98l-.02-1.98-1.84,2.04c-1.38,1.53-1.84,2.44-1.84,3.61,0,.86.09,1.57.21,1.57s.75-.54,1.4-1.19M248.76,418.34c0-.18-.26-.61-.58-.97-.5-.56-.46-.56.24-.03,1.18.89,1.59.22.56-.92-.95-1.05-3.91-2.98-4.16-2.72-.21.21-.38,1.79-.31,2.85.1,1.51,4.25,3.26,4.25,1.78M390.81,419.95c0-.49-.89-.7-1.16-.27-.16.26.03.48.43.48s.73-.09.73-.2M393.61,420.91c0-.1-.42-.29-.93-.42-.51-.14-.82-.06-.67.18.25.41,1.6.61,1.6.25M311.58,420.07c.76-.82,1.52-2.23,1.68-3.14.16-.91.41-2.06.55-2.54.25-.86.23-.86-.95,0-1.45,1.05-3.08,4.18-3.08,5.91,0,.68.09,1.25.21,1.25s.83-.67,1.59-1.48M318.45,421.2c.55-.44,1.25-1.33,1.57-1.97l.57-1.16-1.1,1.16c-.61.64-1.52,1.53-2.03,1.97-.51.44-.72.81-.47.81s.91-.36,1.46-.81M392.44,423.42c-.16-.26-.75-.46-1.31-.46-.83,0-.89.09-.32.46.92.59,2,.59,1.63,0M304.69,424.26c.93-.83,2.76-4.7,2.76-5.84,0-.1-.65.2-1.44.66-1.52.89-3.37,3.69-3.87,5.87-.27,1.16-.21,1.25.53.84.46-.26,1.37-.95,2.03-1.54M250.77,425.81c.2-.03.22-.31.04-.61-.21-.35-.09-.45.33-.29.36.14.92-.02,1.24-.36.47-.5.26-.71-1.16-1.1-.96-.27-2.55-.48-3.53-.48-1.57,0-1.76.12-1.63,1.03.23,1.57,1.98,2.25,4.72,1.82M209.24,424.91c-.62-.21-4.71,1.38-4.72,1.83,0,.16,1.18-.14,2.63-.67,1.45-.54,2.39-1.05,2.09-1.16M313.41,423.84c.7-1.75.62-1.68-2.02,1.68l-1.83,2.33,1.61-1.21c.88-.67,1.89-1.93,2.24-2.79M288.54,426.17c1.51-.75,3.14-1.35,3.62-1.35s2.34-.88,4.13-1.94l3.26-1.94-.07-21c-.04-11.55-.17-22.57-.28-24.49l-.22-3.49h-6.59c-5.55,0-6.59-.11-6.59-.7s1.05-.7,6.64-.7c6.33,0,6.64-.04,6.64-.93s-.26-.93-6.52-.78c-5.67.13-6.56.05-6.81-.61-.16-.41-.2-.84-.08-.95.21-.21,6.18-.57,10.74-.65,1.47-.02,2.68-.25,2.68-.51,0-.29-2.45-.47-6.43-.47-6.59,0-8.12-.37-7.01-1.71.37-.45,2.19-.63,6.62-.68,5.09-.06,5.64-.13,3.32-.41-1.54-.19-4.27-.37-6.08-.4-3.46-.06-4.78-.66-3.87-1.77.35-.42,1.97-.64,5.23-.7l4.72-.08-4.66-.28c-2.56-.16-5.03-.46-5.47-.67-.72-.33-.82-.1-.82,1.88,0,1.24-.2,5.83-.45,10.18-.24,4.35-.66,12.11-.92,17.23-.27,5.12-.6,10.57-.73,12.11-.27,3.12-1.62,25.45-1.62,26.75,0,.71.34.8,2.45.61,1.36-.12,3.66-.81,5.2-1.56M275.53,428.54c.65,0,1.18-.26,1.19-.58,0-.32.12-1.63.25-2.91.13-1.28.85-12.6,1.61-25.15.76-12.55,1.5-23.92,1.65-25.26l.27-2.43-1.31.68c-.72.38-1.56.68-1.86.68-.3,0-.99.72-1.53,1.6-1.16,1.87-3.97,4.46-4.86,4.46-.34,0-1.28,1.07-2.09,2.37-.9,1.46-2,2.57-2.84,2.89-.85.32-1.47.96-1.66,1.7-.45,1.78-2.02,4.13-2.98,4.44-.57.18-.93.88-1.1,2.13-.14,1.03-.64,2.42-1.11,3.08-1.45,2.04-1.5,2.18-1.79,4.46-.17,1.34-.73,2.74-1.42,3.56-.82.97-1.14,1.92-1.16,3.38,0,1.12-.29,2.54-.64,3.16-.45.82-.5,1.56-.19,2.71.24.87.3,2.2.14,2.96-.2.95,0,2.02.7,3.45.55,1.14.87,2.3.7,2.56-.16.27.24,1.13.9,1.91.66.78,1.2,1.62,1.2,1.85s.58.43,1.29.43,2.02.39,2.91.87c1.2.64,2.3.82,4.19.68,1.95-.15,2.89.01,3.96.68,1.24.78,1.57.81,2.9.26.82-.34,2.03-.62,2.68-.62M209.39,428.93c1.48-.56,2.45-1.18,2.22-1.41-.38-.38-5.69,1.65-5.69,2.18,0,.43.82.25,3.47-.77M295.32,429.19c1.63-1.08,4.89-5.24,4.45-5.69-.84-.84-5.44,3.22-6.24,5.51-.27.76-.38,1.38-.27,1.38s1.04-.54,2.05-1.21M302.77,431.11c1.19-.62,3.27-2.96,3.27-3.69,0-.15-.86.56-1.92,1.58s-2.2,1.86-2.53,1.86-.75.21-.9.47c-.42.68.54.57,2.08-.22M257.54,430.76l3.1-1.51-2.38-.14c-1.81-.11-3.05.16-5.12,1.11-2.54,1.16-2.66,1.28-1.58,1.61,2.03.62,2.8.48,5.98-1.06M289.64,430.02c2.68-2.89,2.38-3.78-.65-1.91-1.53.95-4.36,4.65-4.36,5.7,0,.8,2.55-1.13,5.01-3.79M262.5,433.73c1.02-.47,2.68-1.41,3.67-2.09l1.81-1.23h-2.12c-1.68,0-2.54.32-4.1,1.51-3.28,2.51-2.89,3.47.74,1.81M293.85,434.88c.69-.36,1.68-1.12,2.19-1.7l.93-1.05-1.07.56c-.58.31-1.82,1.07-2.74,1.7-1.82,1.23-1.36,1.55.68.49M277.79,435c1.4-.73,5.91-4.58,5.91-5.04,0-.21-.83-.17-1.85.09-1.23.31-2.49,1.16-3.73,2.5-2.42,2.63-2.55,3.61-.33,2.45M270.78,434.87c.82-.37,2.34-1.41,3.36-2.31,1.85-1.64,1.86-1.65.61-1.66-.69,0-1.84.2-2.56.48-1.35.51-4.34,3.12-4.34,3.79,0,.57,1.26.45,2.92-.29M414.75,434.36c3.44-17.22,3.77-33.84.98-49.83-1.84-10.61-4.67-22.6-5.3-22.57-.16,0-1.39,2.06-2.74,4.56-3.82,7.08-6.97,12.16-11.52,18.57-6.49,9.14-9.59,12.82-21.53,25.45-3.39,3.6-6.1,6.6-6.01,6.69.08.08,4.53-.88,9.89-2.14,10.57-2.5,16.88-3.77,18.64-3.77,1,0,1.74,1.28,6.99,11.99,5.6,11.44,7.16,14.75,8.17,17.35.66,1.7,1.02.76,2.43-6.29M183.56,441.21c0-.46.18-1.04.41-1.28.22-.24.78-1.6,1.24-3,1.61-4.96,10.34-23.04,12.42-25.69.55-.71,1.67-.5,13.36,2.43,7.01,1.76,13.72,3.33,14.9,3.49l2.15.3-3.37-3.41c-2.74-2.77-3.48-3.3-3.96-2.81-.48.48-.35.78.69,1.54,1.52,1.11,1.64,1.79.34,1.79-.55,0-1.12-.44-1.35-1.05-.34-.89-.45-.94-.72-.27-.29.72-.55.71-3.49-.11-1.74-.48-5.65-1.41-8.68-2.07-3.03-.65-5.62-1.34-5.76-1.53-.14-.18-.88-.38-1.65-.43-.77-.05-1.7-.49-2.08-.97-.65-.82-.76-.73-1.99,1.5-.71,1.3-2.88,5.48-4.82,9.29-1.93,3.81-3.6,6.83-3.72,6.72-.49-.49,7.5-17.32,8.89-18.7.49-.49.2-1.54-1.59-5.68-3.08-7.15-3.03-6.98-2.08-6.2.43.35,1.78,1.97,3,3.58,1.33,1.75,2.35,2.72,2.54,2.41.18-.29-.11-.98-.63-1.53-1.04-1.11-6.26-10.13-6.01-10.38.14-.14,6.45,7.26,7.94,9.32.47.65.74.73.99.32.2-.31.05-.81-.32-1.12-1-.82-7.85-11.49-7.38-11.49.22,0,2.56,2.41,5.18,5.36,4.65,5.21,7.23,7.36,4.06,3.38-3.26-4.09-10.62-15.15-9.72-14.58.26.15,1.88,2.11,3.6,4.35,3.28,4.25,11.75,13.94,15.61,17.87,1.24,1.26,2.26,2.47,2.26,2.69,0,.45,1.42,1.09,1.73.79.11-.11-2.42-3.24-5.62-6.95-9.4-10.91-15.74-20.17-21.17-30.94-1.71-3.39-3.23-6.17-3.37-6.17-.25,0-.84,2.03-3.04,10.28-1.86,7-3.42,17.29-3.95,26.15-.29,4.73-.43,9.1-.31,9.72.15.79.23.6.27-.62.13-3.44.88-1.66,1.2,2.82.61,8.7.96,5.52.96-8.92,0-13.03.11-15.08,1.04-20.1.57-3.07,1.36-6.53,1.74-7.68l.7-2.1-.21,1.86c-.12,1.02-.66,5.32-1.21,9.55-1.87,14.45-1.31,28.69,1.69,42.94.37,1.78.66,3.9.64,4.72l-.04,1.48-.63-1.4c-.34-.77-1.08-3.39-1.63-5.82-2.3-10.11-2.26-7.2.05,4.13.75,3.68,1.36,6.88,1.36,7.1,0,.87-.78.35-1.3-.87l-.54-1.28.34,1.4c.19.77.29,2.6.25,4.08-.05,1.47.11,2.68.35,2.68s.44-.38.44-.84M304.42,450.43c-.22-.36-.49-.39-.81-.08-.26.26-.31.71-.13,1.01.22.36.49.39.81.08.26-.26.31-.71.13-1.01M304.13,455.95c.61-.23.99-.54.84-.68-.29-.29-4.98,1.15-4.98,1.53,0,.27,2.55-.25,4.14-.85M329.8,459.73c0-.66-.22-.56-1.21.55q-.88.99.16.45c.58-.3,1.05-.75,1.05-1M303.67,459.92c.88-.36,1.49-.75,1.36-.88-.32-.33-4.52,1.16-4.86,1.73-.32.52.86.23,3.5-.85M308.38,461.61c.38-.25.49-.45.23-.45s-.78.2-1.16.45c-.38.25-.49.45-.23.45s.78-.2,1.16-.45M304.3,463.61c.45-.14.82-.43.82-.66s-.89-.06-1.98.36c-2.5.96-3.38,1.7-1.25,1.04.88-.27,1.97-.61,2.41-.75M318.16,465.07c0-.13-.42,0-.93.27-.51.27-.93.61-.93.73s.42,0,.93-.27c.51-.27.93-.61.93-.73M237.1,465.66c-.37-.34-2.24-1.85-4.15-3.38-6.08-4.84-17.96-16.74-23.46-23.5-1.2-1.48-1.25-1.5-.53-.23,3.49,6.11,14.83,17.99,22.81,23.89,2.82,2.09,5.32,3.8,5.57,3.81.25,0,.14-.26-.23-.59M309.56,466.82c-.14-.14-.52,0-.84.32-.46.46-.4.51.26.26.46-.18.72-.44.58-.58M239.45,467.49c0-.1-.37-.46-.82-.82-.74-.58-.75-.56-.18.18.61.78.99,1.02.99.64M238.33,470.31c-8.52-6.46-17.1-14.38-26.08-24.07l-3.67-3.96,3.48,4.66c5.28,7.05,15.5,16.59,23.69,22.11,3.53,2.38,4.96,3.09,2.57,1.27M312.11,469.49c1.79-1.3,3.25-2.47,3.25-2.6s-1.42.76-3.14,1.97c-3.55,2.49-4.17,3-3.69,3,.18,0,1.79-1.07,3.59-2.37M320.84,467.11c3.4-2.59,6.17-4.92,6.17-5.19s-.58.05-1.28.7c-.7.65-3.69,2.98-6.64,5.16-2.94,2.18-6.4,4.96-7.68,6.16l-2.33,2.19,2.79-2.16c1.54-1.19,5.57-4.28,8.97-6.86M324.16,468.76c4.51-3.62,8.94-7.37,9.84-8.33.9-.96-.38-.09-2.83,1.93-2.45,2.02-7.64,6.17-11.52,9.21-7.03,5.51-10.29,8.46-5.96,5.39,1.25-.88,5.96-4.57,10.48-8.2M310.77,478.96c.58-.74.56-.75-.18-.18-.45.35-.82.72-.82.82,0,.39.38.14.99-.64M265.76,479.77c0-1-1.36-.86-1.55.16-.12.62.07.81.69.69.47-.09.86-.48.86-.86M318.16,477.71c5.64-4.13,17.13-13.68,20.31-16.89,1.85-1.87,3.72-3.4,4.15-3.4,1.09,0,.83.46-2.28,3.97-3,3.4-10.99,10.54-18.09,16.19-2.5,1.99-4.54,3.72-4.54,3.86,0,.46,5.86-3.7,11.41-8.09,3.07-2.44,8.1-6.97,11.18-10.08,4.95-5,7.22-6.89,7.22-5.99,0,.75-8.47,9.52-16.3,16.9l-2.1,1.97,2.56-1.38c14.54-7.86,28.22-16.13,34.7-20.97,9.48-7.08,19.14-17.39,23.72-25.34l1.26-2.18-1.92-.98c-2.11-1.08-2.47-2.65-.56-2.45,1.23.13,1.32-.26.25-1.05-.68-.5-1.14-.07-3.59,3.44-3.66,5.24-12.99,14.54-17.75,17.68-4.66,3.07-10.92,6.1-16.07,7.76-5.75,1.85-14.08,2.17-19.32.73-4.74-1.3-7.74-2.94-10.73-5.85-2.77-2.7-5.43-7.74-6.58-12.47-.42-1.73-.87-3.06-.98-2.93-.45.45,1.36,7.17,2.67,9.95,1.74,3.68,3.33,5.68,6.53,8.2,7.48,5.9,16.31,7.6,28.16,5.44,5.27-.96,6.99-.97,3.45-.02-11.81,3.18-20.44,2.94-28.28-.8-6.59-3.13-10.64-8.5-13.66-18.06l-1.32-4.21.28,2.78c.39,3.78,1.82,8.29,3.72,11.73,3.76,6.79,12.72,11.92,21.61,12.36l2.81.14-3.84,3.88c-2.11,2.14-8.03,7.25-13.15,11.36-11.75,9.42-13.39,11.05-4.89,4.83M275.49,479.82c-.27-.3-2.04,1.44-2.04,2,0,.27.5-.02,1.1-.65.61-.63,1.03-1.24.94-1.35M258.7,480.44c-.3-.78-1.36-.88-1.8-.18-.16.27-.04.8.27,1.17.69.83,1.92.04,1.53-.99M272.92,483.24c.14-.76.07-.8-.58-.26-.89.74-1,1.6-.17,1.33.32-.11.66-.59.75-1.07M267.6,483.92c-.15-.24-.47-.32-.72-.17-.24.15-.32.47-.17.72.15.24.47.32.72.17.24-.15.32-.47.17-.72M276.71,485.6c0-.39-.3-.7-.67-.7-.78,0-1.3.67-.87,1.1.56.56,1.54.3,1.54-.4M271,485.56c-.44-.45-1.33.27-1,.81.2.32.46.31.79-.03.27-.27.37-.62.21-.78M266,486.29c0-.26-.21-.47-.47-.47s-.47.21-.47.47.21.47.47.47.47-.21.47-.47M280.31,487.84c.2-.59-1.16-1.2-1.8-.8-.27.17-.23.54.11.95.6.73,1.43.66,1.69-.14M274.84,488.19c0-.63-.85-1.07-1.41-.72-.26.16-.35.49-.2.73.35.56,1.61.56,1.61,0M269.47,488.66c.34-.56-.53-1.11-1.16-.73-.52.32-.18,1.16.48,1.16.23,0,.53-.2.68-.43M283.46,489.79c0-.5-.34-.98-.75-1.07-.81-.15-1.53,1.09-1.07,1.84.48.76,1.82.2,1.82-.77M278.1,490.25c0-.39-.3-.7-.67-.7-.9,0-1.35.79-.61,1.09,1.02.41,1.29.33,1.29-.39M272.98,490.56c0-.61-.55-1.01-1.01-.73-.48.3-.07,1.12.57,1.12.24,0,.44-.18.44-.39M287.26,492.56c.16-.41-.09-1-.6-1.37-.76-.57-.95-.56-1.45.1-.42.56-.44.92-.06,1.38.69.83,1.77.78,2.11-.1M281.5,492.59c.05-.25-.27-.53-.72-.61-.51-.1-.82.13-.82.61,0,.81,1.38.82,1.54,0M275.87,492.26c-.3-.3-.7-.39-.88-.2-.19.19-.04.53.33.76.87.54,1.26.14.56-.56M279.39,494.59c-.29-.86-1.29-1.01-1.29-.18,0,.41.33.74.74.74s.66-.25.55-.55M285.09,494.94c0-.95-.91-1.4-1.55-.76-.41.41-.37.64.16.98.98.62,1.39.55,1.39-.22M290.24,494.1c-1.46-1.3-2.36-1.35-2.36-.13,0,.35.55,1.07,1.23,1.6.99.78,1.36.86,1.91.4.58-.48.47-.75-.79-1.88M283.23,497.29c0-.75-1.26-1.36-1.93-.94-.25.16-.08.56.39.92,1.09.82,1.54.83,1.54.02M288.82,498.01c0-.72-1.8-2.03-2.33-1.7-.37.23-.28.59.27,1.21.82.9,2.05,1.2,2.05.49M301.86,523.08c.58-1.54,2.16-4.68,3.51-6.97,6.92-11.71,13.12-17.02,34.91-29.9,24.14-14.27,38.29-27.2,47.94-43.81,1.73-2.98,1.22-2.82-.74.23-2.84,4.44-8.59,11.22-14.2,16.71-10.29,10.09-21.01,17.86-37.24,26.96-12.76,7.16-17.82,10.61-22.79,15.57-4.77,4.76-7.6,8.53-10.65,14.24-1.23,2.31-2.18,3.64-2.31,3.23-.47-1.41-.73-19.36-.75-50.05-.01-20.62-.18-31.43-.47-30.97-.33.51-.45.53-.46.09,0-.34-.22-.48-.48-.32-.26.16-.47.81-.47,1.43,0,1.39-1.45,2.06-4.43,2.06-1.12,0-2.17.21-2.32.47-.18.29.93.47,3,.47,2.97,0,3.29.09,3.29.92s-.28.91-3.78.8c-3.53-.12-3.82-.06-4.54.98-2.19,3.2-7.49,8.77-9.66,10.16-1.36.87-2.56,1.58-2.67,1.58s1.31-1.52,3.17-3.38c2.61-2.62,3.82-4.3,5.36-7.48,1.09-2.26,1.87-4.21,1.74-4.35-.14-.14-1.09,1-2.11,2.52-2.22,3.27-6.48,8.02-7.19,8.02-.28,0-.09-.47.42-1.05,2.42-2.75,6.05-9.66,5.08-9.66-.09,0-1.1,1.31-2.24,2.91-4.24,5.93-8.96,9.53-14.74,11.24-4.55,1.35-13.06.95-19.53-.91-3.63-1.05-2.64-1.3,1.8-.46,5.41,1.02,14.31.96,18.25-.13,5.48-1.52,9.57-4.84,12.2-9.92,1.52-2.93,1.55-3.88.06-2.05-1.26,1.54-2.02,1.37-1.15-.25.48-.91.46-1-.24-.74-.43.17-.94.3-1.13.3s-.7.83-1.15,1.85c-1.06,2.4-4.09,5.03-7.96,6.92-6.89,3.36-15.73,3.37-25.33,0-8.18-2.86-14.93-7.34-23.17-15.39-5.41-5.28-6.19-5.89-6.74-5.23-.34.41-1.42,1.07-2.39,1.45-.98.39-1.77.8-1.77.9s.55,1.08,1.23,2.16c5.52,8.84,16.23,19.86,24.85,25.59,7.01,4.66,16.8,9.59,27.48,13.85,4.74,1.89,8.81,3.6,9.04,3.81.25.21.1.5-.35.67-.42.16-.65.5-.49.75.15.26.65.11,1.15-.34.83-.75,1.07-.73,4.38.48,1.93.7,3.5,1.44,3.5,1.63s-.42.89-.94,1.55c-.52.66-.78,1.29-.58,1.42.53.33,2.78-1.74,2.57-2.36-.11-.32.19-.43.74-.28.86.23.88.34.23,1.88-.38.9-.57,1.95-.42,2.34.23.61.41.6,1.41-.06,1.5-.99,1.78-.95,1.17.18-.43.8-.35.93.51.93.8,0,.89.13.47.64-.41.5-.36.71.23.94.42.16,1.03.08,1.35-.19.62-.51,1.9.52,1.33,1.08-.55.55.88,1.74,1.77,1.46.54-.18.87-.05.87.34,0,.65,2.44,3.16,3.1,3.2,1.17.07,6.74,8.45,6.07,9.12-.09.09-.82-.83-1.61-2.04s-2.19-2.93-3.11-3.82c-1.55-1.49-1.73-1.55-2.43-.85-.7.71-.58.96,1.65,3.47,2.52,2.83,5.17,7.53,5.17,9.18,0,.62-.62-.09-1.74-1.98-2.26-3.82-6.61-8.66-7.23-8.04-.3.3.1,1.15,1.18,2.47,2.16,2.65,5.81,8.36,6.66,10.4.78,1.86.17,2.25-.66.42-.9-1.97-5.84-8.16-8.85-11.07-3.66-3.54-4.8-3.06-1.29.55,2.86,2.93,4.94,5.49,6.4,7.85,1.17,1.9.89,2.58-.31.73-1.33-2.04-6.68-7.47-10-10.13-4.19-3.35-8.87-6.2-20.26-12.33-18.82-10.12-26.66-15.48-37.92-25.93-1.9-1.76-3.21-2.75-2.92-2.2.61,1.13,10.13,10.14,14.06,13.31,7.22,5.82,15.17,10.85,26.31,16.66,16.42,8.57,24.54,14.49,30.21,22.01,2.76,3.67,8.22,12.78,8.22,13.73,0,1.43.9.35,1.87-2.22M299.51,535.08c-2.59-7.09-8.06-16.24-13.34-22.34-5.3-6.12-10.99-10.28-22.5-16.44-11.02-5.9-15.81-8.63-20.49-11.66-18.69-12.11-33.41-28.72-45.07-50.87-2.09-3.98-2.89-5.11-3.26-4.66-.67.8-9.94,19.92-11.31,23.3-.59,1.47-1.22,2.68-1.38,2.68-.64,0-4.93-14.99-6.46-22.59-1.87-9.29-2.15-12.76-2.13-25.85.03-16.83,1.39-26.5,5.89-41.68,1.47-4.96,4.9-14.16,5.54-14.86.21-.24.95.89,1.66,2.56,2.67,6.27,9.15,18.64,12.55,23.98,7.6,11.89,12.47,17.59,31.12,36.43,4.89,4.94,8.89,9.24,8.89,9.55,0,1.22-12.84-.18-25.36-2.75l-1.61-.33,1.49,2.02c15.26,20.75,36.88,30.76,51.77,23.96,2.37-1.08,6.09-4.09,6.09-4.93,0-.19-.65-.12-1.43.15-1.74.61-5.31.18-6.84-.82-.61-.41-1.43-.61-1.83-.46-1.1.43-4.08-.55-5.39-1.77-.66-.61-1.89-1.24-2.74-1.4-3.31-.62-5.51-2.81-5.51-5.47,0-.51-.71-1.61-1.58-2.43-1.91-1.8-2.88-4.79-2.11-6.48.42-.92.34-1.42-.46-2.72-1.11-1.82-1.31-5.48-.39-7.09.32-.56.58-2.31.58-3.88,0-2.25.23-3.18,1.05-4.29.74-1.01,1.05-2.07,1.05-3.65,0-1.44.33-2.72.93-3.63.51-.77,1.12-1.71,1.37-2.1s.57-1.47.72-2.41c.15-.95.87-2.35,1.6-3.13.73-.78,1.47-2.2,1.65-3.15.21-1.12.98-2.39,2.18-3.6,1.02-1.02,2.24-2.61,2.71-3.52.98-1.91,2.45-3.34,4.44-4.35.77-.39,2.09-1.76,2.92-3.04,1.1-1.7,2.05-2.56,3.53-3.16,1.17-.48,2.43-1.46,2.99-2.32.55-.84,1.99-1.97,3.28-2.58,1.27-.61,2.65-1.66,3.06-2.35.41-.68,1.49-1.7,2.38-2.25,1.55-.95,1.63-1.13,1.63-3.64v-2.64l-3.61.3c-1.98.16-4.49.45-5.58.64-2.27.4-4.08-.48-4.78-2.34-.5-1.32-.02-1.23-13.74-2.52-9.68-.9-10.27-.91-10.71-.15-.26.44-1.63,1.98-3.06,3.42-3.94,3.96-8.89,5.52-14.39,4.53-8.22-1.5-14.1-8.56-14.08-16.92.02-7.13,3.82-13.02,10.31-15.99,2.11-.97,3.27-1.18,6.31-1.16,5.3.04,8.44,1.33,12.15,4.99,1.58,1.56,2.95,3.08,3.05,3.38.13.4,1.62.38,5.99-.08,6.45-.68,12.18-1.11,15.37-1.15,1.99-.02,2.13-.12,2.86-1.85.64-1.53,1.05-1.88,2.51-2.15.95-.18,2.62-.13,3.7.12,2.56.59,8,.78,8.29.29.12-.21.37-3.13.55-6.48l.33-6.1-10.63-.33c-18.2-.55-44.63-3.25-48.47-4.95-3.65-1.62-4.29-5.35-1.51-8.85l1.41-1.78-1.81-5.06c-2.57-7.2-2.96-7.84-5.38-8.77-4.06-1.55-5.26-4.6-3.03-7.74.99-1.39.99-1.42.13-3.02-.54-1-1.32-1.71-2.04-1.85-3.61-.71-6.14-3.25-6.7-6.69-.27-1.7-.43-1.89-1.66-1.89-4.53,0-8.34-4.27-7.68-8.61.29-1.97.27-2.02-1.19-2.34-2.1-.46-4.96-3.47-5.62-5.91-.44-1.64-.41-2.42.2-4.32l.74-2.31-1.59-1.64c-1.97-2.03-2.58-3.59-2.58-6.59,0-2.66.46-3.74,2.47-5.87l1.43-1.51-1.02-1.82c-2.71-4.82.27-11.08,6.03-12.64l1.7-.46-.22-2.91c-.2-2.64-.08-3.11,1.2-5.1,2.04-3.16,4.43-4.28,8.57-3.98,2.89.2,3.44.1,5.73-1.14,1.56-.85,2.53-1.68,2.53-2.18,0-.44.52-1.84,1.16-3.11,2.71-5.39,9.55-6.8,14.34-2.95,1.63,1.31,1.87,1.37,3.42.86.91-.3,3.07-.53,4.8-.5,3.11.05,3.16.02,4.58-1.75,1.84-2.3,4.05-3.33,7.14-3.33s6.19,1.44,7.55,3.5c.82,1.26,1.39,1.58,3.17,1.82,1.19.16,3.65.79,5.45,1.4,2.85.97,3.4,1.03,4.14.48,1.25-.95,1.94-.83,4.7.84,1.74,1.05,2.58,1.88,2.75,2.72.18.88,1.03,1.67,3.15,2.91,1.6.94,3.05,1.7,3.21,1.7s.61-.68,1-1.51c.38-.83,1.15-2.07,1.7-2.76l1.01-1.25-2.82-2.61c-4.61-4.27-4.61-5.4.07-10.56,2.53-2.79,4.1-6.05,4.76-9.86.29-1.68.25-1.76-.8-1.53-8.17,1.78-11.74,3.12-15.9,5.94-1.51,1.02-2.88,1.72-3.06,1.55-.39-.4-.42-29.4-.03-29.79.16-.16,1.4.45,2.77,1.35,1.36.9,4.19,2.25,6.28,3.01,3.83,1.39,10.48,2.97,10.87,2.59.11-.11-.56-1.77-1.51-3.67-1.33-2.7-2.5-4.2-5.27-6.74-3.43-3.16-3.51-3.29-2.43-3.7,5.91-2.25,10.86-4.99,14.55-8.08l1.33-1.11,1.86,1.7c2.12,1.94,7.05,4.77,11.73,6.73,3.18,1.34,3.2,1.35,2.1,2.06-4.09,2.63-8.13,7.89-9.07,11.84-.27,1.16-.2,1.3.56,1.08.48-.14,2.77-.71,5.07-1.26,4.13-1,11.34-4.01,12.84-5.37.7-.64.79-.43,1.07,2.46.38,4.07.38,18.81,0,23.75l-.3,3.83-1.74-1.38c-3.47-2.75-9.41-5.24-16-6.73l-1.35-.3.31,2.67c.43,3.65,1.63,6.15,4.93,10.25,1.56,1.94,2.81,3.95,2.81,4.54,0,1.43-1.89,3.87-4.36,5.63l-2.06,1.47,1.4,1.84c.77,1.01,1.6,2.39,1.84,3.07l.45,1.23,3.08-1.8c2.07-1.21,3.27-2.25,3.66-3.18.67-1.58,4.86-4.23,6.72-4.23.65,0,1.64.32,2.21.72.95.67,1.3.63,4.5-.47,1.9-.66,4.76-1.33,6.33-1.49,2.38-.25,2.94-.48,3.35-1.38.64-1.4,3.58-3.42,5.66-3.89,3.48-.79,7.96,1.02,9.91,4,.67,1.02.98,1.12,2.69.86,1.2-.18,3.06,0,4.89.48l2.95.76,1.23-1.17c2.75-2.64,7.49-3.04,11.09-.94,2.07,1.21,4.32,4.42,4.32,6.16,0,.59.53,1.32,1.28,1.77.7.43,1.84,1.16,2.52,1.63.96.66,1.76.79,3.54.57,5.88-.7,10.28,3.43,9.77,9.15l-.24,2.6,1.97.82c5.32,2.2,7.44,7.66,4.88,12.59l-.93,1.79,1.14,1.14c3.57,3.57,3.4,10.04-.33,12.96-1.37,1.08-1.42,1.21-.88,2.7.77,2.12.72,5.22-.11,6.83-.94,1.82-3.21,3.63-5.33,4.27q-1.77.53-1.74,2.98c.05,3.37-1.66,5.95-4.97,7.49-1.33.61-2.79,1.12-3.23,1.13-.53,0-.82.37-.82,1.05-.02,2.24-1.69,4.83-4.05,6.28-1.43.88-2.54,1.97-2.92,2.89-.54,1.32-.51,1.57.36,2.5,3.02,3.23,2.04,6.12-2.79,8.19-2.42,1.04-2.31.79-4.15,8.79-1.09,4.72-1.07,4.84,1.22,7.99,1.34,1.83,1.45,3.25.42,5.23-1.12,2.17-3.7,3.02-12.31,4.08-16.92,2.07-24.37,2.66-39.59,3.11-5.25.16-9.65.42-9.78.59-.13.17-.17,3.08-.09,6.48l.14,6.17h6.06c3.69,0,6.46-.21,7.07-.54,1.22-.66,3.72-.61,5.03.09.54.28,1.25,1.2,1.61,2.04l.63,1.53,4.8.31c2.64.17,7.78.54,11.43.84l6.64.53,2.78-3.03c3.94-4.3,6.23-5.25,12.6-5.26,4.59,0,5.06.09,7.68,1.47,3.43,1.81,6.28,4.69,7.98,8.08,1.05,2.09,1.32,3.34,1.47,6.75.24,5.37-.82,8.43-4.15,12.09-6.53,7.14-17.39,7.61-24.26,1.05-1.13-1.08-2.51-2.56-3.06-3.29l-1.02-1.34-10.6.99c-5.83.54-10.96.99-11.41.99-.48,0-1.08.64-1.47,1.59-.88,2.11-2.19,2.76-4.87,2.39-1.19-.16-3.42-.4-4.96-.52l-2.79-.22,1.4,1.17c.77.65,1.78,1.17,2.26,1.18,1.62,0,4.16,1.56,5.07,3.11.5.85,1.21,1.55,1.56,1.55.92,0,4.38,3.22,4.38,4.08,0,.39.84,1.62,1.86,2.73,1.42,1.54,1.86,2.4,1.86,3.62,0,1.03.41,2.1,1.15,2.97,1.95,2.31,2.77,5.78,1.63,6.91-.33.33-.25,1.02.23,2.18.9,2.17.89,3.74-.02,5.51-.4.78-.68,2.08-.63,2.89.19,2.84-.05,4.05-.97,4.97-.51.51-.93,1.4-.94,1.98,0,2.34-1.09,4.83-2.84,6.5-1,.95-1.81,2-1.81,2.34,0,1.26-2.36,4.04-3.91,4.6-1.16.42-1.66.93-1.85,1.86-.36,1.8-2.84,4.46-4.75,5.09-.99.33-1.89,1.06-2.31,1.89-.39.75-1.22,1.7-1.85,2.11-1.01.66-1.16,1.09-1.14,3.38.06,10.24,3.1,16.03,10.27,19.56,7.93,3.9,18.54,2.89,29.7-2.84,6.08-3.12,9.82-5.91,15.25-11.36,3.86-3.87,9.74-10.88,9.37-11.15-.05-.04-2.43.4-5.28.98-5.96,1.21-17.99,3.01-20.14,3.01-2.76,0-2.91.2,9.72-12.81,18.54-19.09,30.36-35.32,40.47-55.54,1.57-3.14,2.93-5.71,3.02-5.71.3,0,3.04,8.08,4.66,13.74,1.72,6.04,3.5,14.55,4.82,23.05.68,4.37.82,8.22.8,20.96-.03,16.91-.56,22.41-3.24,33.53-1.43,5.92-3.94,13.97-4.37,13.97-.17,0-.91-1.42-1.65-3.14-1.97-4.61-10.99-22.61-11.21-22.38-.11.11-1.87,3.28-3.92,7.05-6.53,12.02-12.99,20.89-21.35,29.35-9.08,9.18-19.71,17.06-35.27,26.14-12.11,7.07-17.27,10.74-22.61,16.07-7.27,7.27-12.64,16.11-16.04,26.44-.7,2.11-1.33,3.84-1.4,3.84-.07,0-.61-1.31-1.19-2.91"/>
</svg>